<svg width="201" height="40" viewBox="0 0 201 40" fill="none" xmlns="http://www.w3.org/2000/svg">
<path d="M19.6145 5.9834C17.1874 5.9834 14.9053 6.59878 12.9135 7.68771C12.5042 7.91132 12.1033 8.1553 11.7203 8.41648C11.3485 8.67204 10.9887 8.94199 10.6461 9.22949C10.6461 9.22949 10.6433 9.2323 10.6433 9.22949C10.2831 9.53139 9.94364 9.84803 9.61822 10.1787C7.13003 12.7076 5.59984 16.1742 5.59984 19.9981C5.59984 27.7386 11.874 34.0128 19.6145 34.0128C27.355 34.0128 33.6292 27.7386 33.6292 19.9981C33.6292 12.2607 27.355 5.9834 19.6145 5.9834ZM16.8416 22.0801H11.9871V17.9196H16.8416C17.225 17.9196 17.5356 17.6089 17.5356 17.2255V12.371H21.6962V17.2255C21.6962 17.6089 22.0069 17.9196 22.3874 17.9196H27.242V22.0801H22.3874C22.0072 22.0801 21.6962 22.3908 21.6962 22.7741V27.6287H17.5356V22.7738C17.5356 22.3908 17.225 22.0801 16.8416 22.0801Z" fill="#083D4D"/>
<path d="M11.08 7.99524C10.697 7.99524 10.386 8.30591 10.386 8.68925C10.386 9.07224 10.697 9.38326 11.08 9.38326C11.463 9.38326 11.774 9.07224 11.774 8.68925C11.7736 8.30591 11.463 7.99524 11.08 7.99524Z" fill="#F6F6F6"/>
<path d="M19.6145 0.383911C9.04392 0.383911 0 9.41168 0 19.9984C0 30.5757 9.02777 39.6161 19.6145 39.6161C30.1883 39.6161 39.2291 30.5883 39.2291 19.9984C39.2291 9.42432 30.2044 0.383911 19.6145 0.383911ZM19.6145 38.0824C9.81376 38.0824 1.53055 29.8024 1.53055 19.9981C1.53055 10.1973 9.81376 1.91727 19.6145 1.91727C29.4153 1.91727 37.6989 10.1973 37.6989 19.9981C37.6989 29.8024 29.4153 38.0824 19.6145 38.0824Z" fill="#F6F6F6"/>
<path d="M19.6149 5.21948C17.39 5.21948 15.0362 5.73306 13.1571 6.62822C12.8113 6.79321 12.6642 7.20709 12.8292 7.55321C12.9939 7.89899 13.4081 8.04608 13.7542 7.88109C15.4533 7.07159 17.5894 6.60715 19.6149 6.60715C26.8741 6.60715 33.0072 12.7402 33.0072 19.9994C33.0072 27.259 26.8741 33.3917 19.6149 33.3917C12.3553 33.3917 6.2226 27.2587 6.2226 19.9994C6.2226 16.6835 7.43897 13.4153 9.56032 11.0328C9.81518 10.7467 9.7899 10.3078 9.50345 10.053C9.217 9.79813 8.77855 9.82376 8.52369 10.1099C6.17942 12.7434 4.83493 16.3479 4.83493 19.9994C4.83493 28.0299 11.5728 34.7798 19.6152 34.7798C27.6457 34.7798 34.3956 28.0418 34.3956 19.9994C34.3949 11.9693 27.6569 5.21948 19.6149 5.21948Z" fill="#F6F6F6"/>
<path d="M27.9409 16.5294H23.0835V11.6717C23.0835 11.2883 22.7725 10.9773 22.3892 10.9773H16.8402C16.4569 10.9773 16.1459 11.2883 16.1459 11.6717V16.5294H11.2881C10.9048 16.5294 10.5938 16.8401 10.5938 17.2238V22.7755C10.5938 23.1588 10.9048 23.4699 11.2881 23.4699H16.1459V28.3276C16.1459 28.7081 16.4569 29.0191 16.8402 29.0191H22.3892C22.7725 29.0191 23.0835 28.7085 23.0835 28.3276V23.4699H27.9409C28.3243 23.4699 28.6353 23.1588 28.6353 22.7755V17.2238C28.6353 16.8404 28.3246 16.5294 27.9409 16.5294ZM27.2466 22.0815H22.3892C22.0086 22.0815 21.6976 22.3925 21.6976 22.7758V27.6336H17.5342V22.7758C17.5342 22.3925 17.2236 22.0815 16.8399 22.0815H11.9822V17.9185H16.8399C17.2236 17.9185 17.5342 17.6074 17.5342 17.2241V12.3664H21.6976V17.2241C21.6976 17.6074 22.0086 17.9185 22.3892 17.9185H27.2466V22.0815Z" fill="#F6F6F6"/>
<path d="M45.4771 15.136C45.4771 11.04 48.8691 8.192 53.7971 8.192C58.5331 8.192 61.5411 10.816 61.6691 15.04H57.5731C57.4771 13.024 56.0371 11.84 53.7331 11.84C51.2051 11.84 49.5731 13.056 49.5731 15.008C49.5731 16.672 50.4691 17.6 52.4211 18.048L56.1011 18.848C60.1011 19.712 62.0531 21.76 62.0531 25.248C62.0531 29.6 58.6611 32.416 53.5091 32.416C48.5171 32.416 45.2531 29.76 45.1571 25.568H49.2531C49.2851 27.552 50.8851 28.736 53.5091 28.736C56.2291 28.736 57.9571 27.552 57.9571 25.6C57.9571 24.032 57.1571 23.104 55.2371 22.688L51.5251 21.856C47.5571 20.992 45.4771 18.72 45.4771 15.136ZM64.2546 24.064C64.2546 19.136 67.8066 15.744 72.7026 15.744C77.5986 15.744 81.1506 19.136 81.1506 24.064C81.1506 28.992 77.5986 32.384 72.7026 32.384C67.8066 32.384 64.2546 28.992 64.2546 24.064ZM68.1586 24.064C68.1586 26.944 70.0146 28.896 72.7026 28.896C75.3906 28.896 77.2466 26.944 77.2466 24.064C77.2466 21.184 75.3906 19.232 72.7026 19.232C70.0146 19.232 68.1586 21.184 68.1586 24.064ZM94.5901 16.192H98.4941V32H94.8781L94.5901 29.888C93.6301 31.392 91.5821 32.416 89.4701 32.416C85.8221 32.416 83.6781 29.952 83.6781 26.08V16.192H87.5821V24.704C87.5821 27.712 88.7661 28.928 90.9421 28.928C93.4061 28.928 94.5901 27.488 94.5901 24.48V16.192ZM106.462 32H102.59V8.192H106.462V32Z" fill="white"/>
<path d="M109.79 15.136C109.79 11.04 113.182 8.192 118.11 8.192C122.846 8.192 125.854 10.816 125.982 15.04H121.886C121.79 13.024 120.35 11.84 118.046 11.84C115.518 11.84 113.886 13.056 113.886 15.008C113.886 16.672 114.782 17.6 116.734 18.048L120.414 18.848C124.414 19.712 126.366 21.76 126.366 25.248C126.366 29.6 122.974 32.416 117.822 32.416C112.83 32.416 109.566 29.76 109.47 25.568H113.566C113.598 27.552 115.198 28.736 117.822 28.736C120.542 28.736 122.27 27.552 122.27 25.6C122.27 24.032 121.47 23.104 119.55 22.688L115.838 21.856C111.87 20.992 109.79 18.72 109.79 15.136ZM129.495 39.328V16.192H133.111L133.367 18.592C134.327 16.768 136.407 15.712 138.807 15.712C143.255 15.712 146.199 18.944 146.199 23.904C146.199 28.832 143.511 32.416 138.807 32.416C136.439 32.416 134.391 31.488 133.399 29.888V39.328H129.495ZM133.431 24.096C133.431 26.944 135.191 28.896 137.879 28.896C140.631 28.896 142.263 26.912 142.263 24.096C142.263 21.28 140.631 19.264 137.879 19.264C135.191 19.264 133.431 21.248 133.431 24.096ZM154.012 32.416C150.652 32.416 148.604 30.464 148.604 27.488C148.604 24.576 150.716 22.752 154.46 22.464L159.196 22.112V21.76C159.196 19.616 157.916 18.752 155.932 18.752C153.628 18.752 152.348 19.712 152.348 21.376H149.02C149.02 17.952 151.836 15.712 156.124 15.712C160.38 15.712 163.004 18.016 163.004 22.4V32H159.58L159.292 29.664C158.62 31.296 156.476 32.416 154.012 32.416ZM155.292 29.472C157.692 29.472 159.228 28.032 159.228 25.6V24.768L155.932 25.024C153.5 25.248 152.572 26.048 152.572 27.328C152.572 28.768 153.532 29.472 155.292 29.472ZM165.911 24.064C165.911 19.168 169.143 15.712 173.815 15.712C178.135 15.712 181.079 18.112 181.495 21.92H177.591C177.143 20.128 175.831 19.2 173.975 19.2C171.479 19.2 169.815 21.088 169.815 24.064C169.815 27.04 171.351 28.896 173.847 28.896C175.799 28.896 177.175 27.936 177.591 26.208H181.527C181.047 29.888 177.975 32.416 173.847 32.416C169.047 32.416 165.911 29.088 165.911 24.064ZM191.505 32.416C186.801 32.416 183.505 28.992 183.505 24.096C183.505 19.136 186.737 15.712 191.377 15.712C196.113 15.712 199.121 18.88 199.121 23.808V24.992L187.217 25.024C187.505 27.808 188.977 29.216 191.569 29.216C193.713 29.216 195.121 28.384 195.569 26.88H199.185C198.513 30.336 195.633 32.416 191.505 32.416ZM191.409 18.912C189.105 18.912 187.697 20.16 187.313 22.528H195.249C195.249 20.352 193.745 18.912 191.409 18.912Z" fill="#F6F6F6" fill-opacity="0.5"/>
</svg>
