<svg width="184" height="40" viewBox="0 0 184 40" fill="none" xmlns="http://www.w3.org/2000/svg">
<path fill-rule="evenodd" clip-rule="evenodd" d="M58.0314 2.51572C58.0314 1.12633 59.1638 0 60.5607 0H64.9669C65.9611 0 66.9246 0.342699 67.6934 0.96976L69.0338 2.06304L69.0673 2.09345C69.0982 2.08307 69.1291 2.07293 69.1602 2.06304C71.5784 1.29265 74.5123 1.14614 77.5068 1.14614C80.5013 1.14614 83.4352 1.29265 85.8534 2.06304C85.8844 2.07293 85.9154 2.08307 85.9463 2.09345L85.9798 2.06304L87.3202 0.96976C88.0889 0.342699 89.0525 0 90.0467 0H94.4528C95.8498 0 96.9821 1.12633 96.9821 2.51572V4.0709C96.9821 5.27415 96.4726 6.42173 95.5783 7.23213L94.497 8.21212C93.9691 8.69054 93.3355 9.03872 92.6474 9.22854L92.3916 9.2991C93.3935 11.677 93.9471 14.2188 93.9471 16.275C93.9471 24.5464 88.8017 28.1187 84.268 31.2663C80.6977 33.7451 77.5068 35.9604 77.5068 40C77.5068 35.9604 74.3159 33.7451 70.7456 31.2663C66.2119 28.1187 61.0665 24.5464 61.0665 16.275C61.0665 14.2188 61.62 11.677 62.622 9.2991L62.3662 9.22854C61.678 9.03872 61.0444 8.69054 60.5166 8.21212L59.4353 7.23213C58.541 6.42173 58.0314 5.27415 58.0314 4.0709V2.51572ZM80.7949 23.0372C80.7949 23.4324 80.6216 23.8113 80.3133 24.0908C80.005 24.3702 79.5869 24.5272 79.1508 24.5272C78.7744 24.5272 78.4112 24.4101 78.1206 24.1983C78.6152 25.5153 79.8811 26.7632 81.8066 24.7564C83.5063 22.8917 81.731 18.9588 80.0014 16.625C79.4249 15.8471 78.4784 15.4727 77.5068 15.4727C76.5352 15.4727 75.5887 15.8471 75.0122 16.625C73.2826 18.9588 71.5072 22.8917 73.207 24.7564C75.1324 26.7632 76.3983 25.5153 76.893 24.1983C76.6024 24.4101 76.2392 24.5272 75.8628 24.5272C75.4267 24.5272 75.0085 24.3702 74.7002 24.0908C74.392 23.8113 74.2187 23.4324 74.2187 23.0372H80.7949ZM71.211 11.3951H66.631L70.2405 14.2698C71.0348 14.9023 72.1957 14.7001 72.6872 13.8436C73.3078 12.7622 72.4835 11.3951 71.211 11.3951ZM83.8026 11.3951H88.3826L84.7731 14.2698C83.9788 14.9023 82.8178 14.7001 82.3264 13.8436C81.7058 12.7622 82.53 11.3951 83.8026 11.3951Z" fill="#6C6C6C"/>
<path d="M102.438 28.3333H106.496V12.9433H102.438V28.3333ZM102.438 10.5433H106.496V6.88332H102.438V10.5433Z" fill="#6C6C6C"/>
<path d="M109.11 33.3733H113.168V26.5933H113.227C114.092 27.9133 115.495 28.7833 117.643 28.7833C121.581 28.7833 124.266 25.6333 124.266 20.6533C124.266 15.8533 121.67 12.5233 117.613 12.5233C115.525 12.5233 114.092 13.5133 113.108 14.8633H113.018V12.9433H109.11V33.3733ZM116.778 25.3933C114.361 25.3933 113.078 23.5633 113.078 20.7733C113.078 18.0133 114.092 15.8233 116.628 15.8233C119.135 15.8233 120.149 17.8633 120.149 20.7733C120.149 23.6833 118.836 25.3933 116.778 25.3933Z" fill="#6C6C6C"/>
<path d="M132.36 28.7833C136.179 28.7833 138.805 26.9233 138.805 23.8333C138.805 20.2333 135.97 19.5133 133.404 18.9733C131.227 18.5233 129.198 18.4033 129.198 17.0833C129.198 15.9733 130.242 15.3733 131.823 15.3733C133.554 15.3733 134.598 15.9733 134.777 17.6233H138.446C138.148 14.5333 135.911 12.5233 131.883 12.5233C128.392 12.5233 125.647 14.1133 125.647 17.4433C125.647 20.8033 128.333 21.5533 131.077 22.0933C133.166 22.5133 135.105 22.6633 135.105 24.1333C135.105 25.2133 134.091 25.9033 132.301 25.9033C130.481 25.9033 129.228 25.1233 128.959 23.3533H125.2C125.439 26.6233 127.915 28.7833 132.36 28.7833Z" fill="#6C6C6C"/>
<path d="M154.21 28.3333V12.9433H150.153V21.8233C150.153 23.8633 148.989 25.3033 147.08 25.3033C145.349 25.3033 144.544 24.3133 144.544 22.5133V12.9433H140.516V23.2033C140.516 26.5633 142.425 28.7533 145.827 28.7533C147.975 28.7533 149.168 27.9433 150.212 26.5333H150.302V28.3333H154.21Z" fill="#6C6C6C"/>
<path d="M156.835 28.3333H160.892V19.3933C160.892 17.3533 161.996 16.0333 163.637 16.0333C165.129 16.0333 165.994 16.9333 165.994 18.6733V28.3333H170.051V19.3933C170.051 17.3533 171.096 16.0333 172.796 16.0333C174.288 16.0333 175.153 16.9333 175.153 18.6733V28.3333H179.211V17.9833C179.211 14.6233 177.391 12.5233 174.168 12.5233C172.229 12.5233 170.618 13.5433 169.574 15.2233H169.514C168.768 13.6033 167.217 12.5233 165.278 12.5233C163.16 12.5233 161.668 13.6033 160.832 15.0133H160.743V12.9433H156.835V28.3333Z" fill="#6C6C6C"/>
<path d="M0 28.3333H4.05751V6.88332H0V28.3333Z" fill="#6C6C6C"/>
<path d="M13.9787 28.7833C18.7224 28.7833 21.9744 25.2433 21.9744 20.6533C21.9744 16.0633 18.7224 12.5233 13.9787 12.5233C9.23498 12.5233 5.983 16.0633 5.983 20.6533C5.983 25.2433 9.23498 28.7833 13.9787 28.7833ZM13.9787 25.6633C11.4726 25.6633 10.1002 23.6533 10.1002 20.6533C10.1002 17.6533 11.4726 15.6133 13.9787 15.6133C16.455 15.6133 17.8572 17.6533 17.8572 20.6533C17.8572 23.6533 16.455 25.6633 13.9787 25.6633Z" fill="#6C6C6C"/>
<path d="M30.6031 33.5833C32.8705 33.5833 34.8396 33.0433 36.1225 31.8433C37.2562 30.7933 37.9424 29.3233 37.9424 27.1633V12.9433H34.0341V14.5633H33.9744C33.0495 13.2733 31.6473 12.5233 29.7379 12.5233C25.8594 12.5233 23.1146 15.4633 23.1146 20.0533C23.1146 24.7033 26.4561 27.4033 29.8572 27.4033C31.7965 27.4033 32.96 26.6233 33.8551 25.6033H33.9446V27.2833C33.9446 29.3833 32.8407 30.4933 30.5434 30.4933C28.6638 30.4933 27.7986 29.7433 27.4704 28.7833H23.4428C23.8605 31.7833 26.4262 33.5833 30.6031 33.5833ZM30.5434 24.1333C28.455 24.1333 27.0826 22.6033 27.0826 19.9933C27.0826 17.4133 28.455 15.7933 30.5136 15.7933C32.96 15.7933 34.1534 17.7133 34.1534 19.9633C34.1534 22.2433 33.1092 24.1333 30.5434 24.1333Z" fill="#6C6C6C"/>
<path d="M47.8048 28.7833C52.5485 28.7833 55.8005 25.2433 55.8005 20.6533C55.8005 16.0633 52.5485 12.5233 47.8048 12.5233C43.0611 12.5233 39.8092 16.0633 39.8092 20.6533C39.8092 25.2433 43.0611 28.7833 47.8048 28.7833ZM47.8048 25.6633C45.2987 25.6633 43.9263 23.6533 43.9263 20.6533C43.9263 17.6533 45.2987 15.6133 47.8048 15.6133C50.2811 15.6133 51.6833 17.6533 51.6833 20.6533C51.6833 23.6533 50.2811 25.6633 47.8048 25.6633Z" fill="#6C6C6C"/>
<path d="M179.028 9.58332C179.028 8.89296 179.583 8.33332 180.271 8.33332H182.757C183.443 8.33332 184 8.89296 184 9.58332C184 10.2736 183.443 10.8333 182.757 10.8333H180.271C179.583 10.8333 179.028 10.2736 179.028 9.58332Z" fill="#6C6C6C"/>
</svg>
