<svg width="35" height="32" viewBox="0 0 35 32" fill="none" xmlns="http://www.w3.org/2000/svg">
<path d="M21.229 4.86381C20.1185 5.41779 18.8335 5.74587 17.5015 5.76376C16.8353 5.77407 16.16 5.68493 15.5084 5.50724C14.8447 5.32228 14.2755 5.05484 13.6916 4.78983C12.5503 4.23707 11.4851 3.61637 10.4046 3.06876C9.32782 2.52206 8.24203 2.01448 7.13357 1.76524L6.72059 1.68003L6.30972 1.63152C6.17299 1.60878 6.038 1.6115 5.90337 1.60908L5.70177 1.60454C5.67002 1.60454 5.63096 1.60089 5.60515 1.60362L5.53609 1.61302C5.35157 1.63 5.17648 1.6773 4.99825 1.77342C4.82036 1.86287 4.64108 1.98992 4.47506 2.15244C4.13638 2.46779 3.84618 2.89078 3.60272 3.34106C3.35787 3.79315 3.15522 4.27891 2.98397 4.7774C2.64389 5.7765 2.40043 6.82199 2.25568 7.87658C2.10605 8.92965 2.037 9.99849 2.09594 11.0349C2.16675 12.0664 2.33172 13.1147 2.68052 14.0813C3.02199 15.0404 3.51517 15.9725 4.2459 16.5913C4.41576 16.7642 4.62295 16.8733 4.81478 17.0098C5.02929 17.1001 5.22915 17.2251 5.46319 17.2721C5.68258 17.3582 5.93023 17.3655 6.1702 17.4067C6.29367 17.414 6.42202 17.404 6.54829 17.4055H6.73908C6.80291 17.404 6.86917 17.3876 6.93405 17.38C7.44957 17.3333 7.99857 17.1766 8.56536 16.9877C9.1318 16.8036 9.70487 16.5871 10.2804 16.3636C11.4331 15.917 12.5936 15.43 13.7927 15.0073C14.9922 14.5847 16.2203 14.1993 17.4854 13.9121C18.754 13.6404 20.0567 13.4552 21.3647 13.4564C22.018 13.4591 22.6688 13.5082 23.3085 13.5965C23.9468 13.6983 24.5708 13.8457 25.17 14.0404C22.6416 13.6192 20.1122 14.001 17.7875 14.7608C15.4373 15.4995 13.2661 16.5938 10.9919 17.6329C10.4206 17.8937 9.8416 18.1526 9.22947 18.3912C8.61908 18.6247 7.95847 18.8439 7.20612 18.9473C5.74956 19.219 3.95327 18.7806 2.88073 17.8263C2.58425 17.6071 2.36311 17.3491 2.12488 17.0977C2.01536 16.9688 1.92119 16.8342 1.81969 16.702C1.71714 16.5698 1.62053 16.4361 1.5424 16.2972L1.29267 15.8845C1.21698 15.7454 1.1521 15.6044 1.08164 15.464C0.933405 15.1841 0.833301 14.8973 0.717851 14.6122C0.295113 13.4634 0.104673 12.2987 0.0174744 11.1207C-0.0383326 9.9421 0.042239 8.78926 0.220473 7.64492C0.409868 6.5027 0.678087 5.36776 1.11303 4.25434C1.33173 3.69824 1.58739 3.1464 1.91003 2.60576C2.23475 2.06694 2.61773 1.53176 3.16987 1.05056C3.43984 0.810108 3.76456 0.585727 4.14684 0.411377C4.52179 0.233388 4.97243 0.112102 5.42482 0.103005L5.59399 0.0972405C5.64771 0.0969373 5.68816 0.102699 5.73594 0.105124L6.01185 0.125436C6.19566 0.139384 6.37982 0.1503 6.55561 0.18699L7.08648 0.281902L7.59571 0.416226C8.26226 0.612407 8.89218 0.86044 9.47258 1.15092C10.0613 1.43352 10.6135 1.74704 11.1426 2.07664C12.2036 2.73219 13.1991 3.42111 14.2256 4.03664C14.7355 4.33682 15.2622 4.64914 15.7952 4.85472C16.3379 5.06454 16.9253 5.19705 17.5315 5.26528C18.1387 5.33138 18.7648 5.31985 19.386 5.24799C20.0079 5.18037 20.628 5.05423 21.229 4.86381Z" fill="white"/>
<path d="M31.3677 21.6269C29.8424 21.0287 28.299 20.4629 26.7591 19.8919L24.4497 19.0353L23.8725 18.8212C23.7051 18.7585 23.4236 18.6484 23.169 18.6072C22.643 18.5089 22.1044 18.5623 21.6468 18.7009C20.7239 18.9844 20.0364 19.4953 19.4208 20.0214C18.8097 20.5559 18.2803 21.1366 17.7881 21.7346C16.8087 22.9335 15.9775 24.2021 15.2147 25.4957C16.1244 24.277 17.0982 23.0927 18.1892 22.0111C18.7354 21.4726 19.313 20.9598 19.937 20.5156C20.5568 20.0775 21.2447 19.693 21.9314 19.5556C22.2726 19.4868 22.5976 19.4953 22.8829 19.5772C23.0361 19.6205 23.133 19.6712 23.3371 19.7718L23.8829 20.0405L26.0653 21.1142C27.2607 21.7024 28.4556 22.29 29.6579 22.8643C29.6101 23.0114 29.563 23.1591 29.5142 23.3046C29.3879 23.6861 29.2554 24.0666 29.1166 24.4453C28.839 25.2024 28.5372 25.9526 28.2021 26.6873C27.8669 27.4217 27.4982 28.1421 27.0716 28.8229C26.644 29.4951 26.1529 30.1564 25.5456 30.6027C25.239 30.8226 24.9262 30.9633 24.5987 30.9651C24.2391 30.9751 23.8543 30.8678 23.4895 30.6925C22.7553 30.3347 22.1132 29.7534 21.546 29.1382C20.4128 27.8886 19.501 26.4602 18.7316 24.9875C19.3305 26.523 20.0685 28.0278 21.0908 29.4235C21.6151 30.1118 22.2077 30.7883 23.0521 31.3038C23.4742 31.5545 23.9834 31.7622 24.56 31.8001C24.8519 31.8229 25.1752 31.7835 25.4473 31.7007C25.7239 31.6176 25.9705 31.5003 26.1944 31.3693C27.0779 30.8311 27.6768 30.1364 28.2314 29.4423C28.7762 28.741 29.2481 28.0124 29.6841 27.2728C30.1194 26.533 30.5177 25.781 30.8916 25.0211C31.0786 24.6409 31.2589 24.2588 31.4333 23.8741C31.6063 23.4859 31.7849 23.1102 31.8982 22.69V22.6897L31.916 22.633C32.0398 22.233 31.8159 21.8028 31.3677 21.6269Z" fill="white"/>
<path d="M2.08862 18.4376C2.992 19.9788 3.74749 21.5246 4.50438 23.0565C5.26544 24.5835 5.99233 26.1093 6.82943 27.5438C7.25112 28.2566 7.69375 28.9522 8.20438 29.5578C8.45726 29.8582 8.73141 30.1354 9.01777 30.3543C9.29959 30.5717 9.62152 30.7324 9.89463 30.7855C10.0551 30.8422 10.4356 30.7097 10.7715 30.492C11.1137 30.2727 11.4506 29.991 11.7704 29.6921C12.092 29.3919 12.4059 29.0738 12.7199 28.7512C13.0292 28.4261 13.3421 28.0959 13.6735 27.7788C13.3093 28.5714 12.9448 29.3613 12.4447 30.122C12.1893 30.4998 11.9121 30.8755 11.5388 31.2258C11.3512 31.4001 11.1409 31.5726 10.8713 31.7185C10.6062 31.8628 10.2654 31.9917 9.85801 31.9996C9.15868 32.0105 8.55945 31.8119 8.05649 31.5423C7.54725 31.2776 7.14091 30.9447 6.76665 30.6048C6.04011 29.9113 5.47785 29.1545 4.99826 28.3776C4.0471 26.8203 3.37881 25.1905 2.89469 23.5286C2.41858 21.866 2.09385 20.1723 2.08862 18.4376Z" fill="white"/>
<path d="M15.6323 1.62812C16.0181 1.72485 16.4028 1.81005 16.7914 1.87615C17.1768 1.94893 17.5646 2.00471 17.9511 2.04413C18.7216 2.12812 19.4924 2.15117 20.2252 2.07051C20.5911 2.03352 20.9458 1.96712 21.2807 1.87494C21.597 1.78762 21.9664 1.64722 22.332 1.51744C23.0616 1.26092 23.7965 0.989246 24.5601 0.74455C25.3239 0.496215 26.1206 0.276989 26.9761 0.129019C27.4055 0.0620083 27.8478 0.0125826 28.305 0.00075718C28.8753 -0.0107651 29.4051 0.110516 29.8607 0.27577C30.7776 0.613857 31.5028 1.12448 32.1181 1.69543C32.7337 2.267 33.2318 2.90831 33.6318 3.58327C34.4382 4.93319 34.8435 6.41319 34.9635 7.87591C35.0863 9.33984 34.885 10.8071 34.576 12.1767C34.2691 13.5543 33.8864 14.9051 33.4393 16.2417C32.9935 17.5767 32.5087 18.9048 31.8903 20.1893C32.3577 17.4457 32.7738 14.7071 33.0821 11.993C33.2338 10.6343 33.2719 9.3265 33.0675 8.03965C32.8777 6.75825 32.462 5.5193 31.7972 4.41772C31.4585 3.87223 31.063 3.35737 30.5998 2.91528C30.1366 2.47956 29.6081 2.09326 29.0644 1.87858C28.792 1.77336 28.5394 1.70847 28.3134 1.70028C27.9761 1.6921 27.627 1.71363 27.2719 1.75093C26.5583 1.82067 25.8223 1.97924 25.0728 2.14601L22.7857 2.69302C22.3972 2.77792 22.0184 2.87374 21.5608 2.94226C21.1216 3.00382 20.6839 3.01656 20.2563 3.00049C18.5472 2.89679 16.9822 2.38768 15.6323 1.62812Z" fill="white"/>
</svg>
