<svg width="70" height="13" viewBox="0 0 70 13" fill="none" xmlns="http://www.w3.org/2000/svg">
<path d="M6.54422 1.01047C6.72128 0.617917 7.27872 0.617918 7.45578 1.01047L8.73785 3.85285C8.81301 4.01948 8.97311 4.13181 9.15536 4.1458L12.3927 4.39431C12.8452 4.42904 13.0211 5.00003 12.6667 5.28339L10.2609 7.20663C10.1076 7.32917 10.0402 7.53007 10.0885 7.72029L10.8267 10.6258C10.935 11.0522 10.4796 11.4005 10.0965 11.1844L7.24563 9.57654C7.09317 9.49055 6.90683 9.49055 6.75437 9.57654L3.90354 11.1844C3.52037 11.4005 3.06498 11.0522 3.17331 10.6258L3.91149 7.72029C3.95982 7.53007 3.89239 7.32917 3.73909 7.20663L1.33332 5.28339C0.978864 5.00003 1.1548 4.42904 1.60726 4.39431L4.84464 4.1458C5.02689 4.13181 5.18699 4.01948 5.26215 3.85285L6.54422 1.01047Z" fill="#FFC64A"/>
<path d="M20.5442 1.01047C20.7213 0.617917 21.2787 0.617918 21.4558 1.01047L22.7379 3.85285C22.813 4.01948 22.9731 4.13181 23.1554 4.1458L26.3927 4.39431C26.8452 4.42904 27.0211 5.00003 26.6667 5.28339L24.2609 7.20663C24.1076 7.32917 24.0402 7.53007 24.0885 7.72029L24.8267 10.6258C24.935 11.0522 24.4796 11.4005 24.0965 11.1844L21.2456 9.57654C21.0932 9.49055 20.9068 9.49055 20.7544 9.57654L17.9035 11.1844C17.5204 11.4005 17.065 11.0522 17.1733 10.6258L17.9115 7.72029C17.9598 7.53007 17.8924 7.32917 17.7391 7.20663L15.3333 5.28339C14.9789 5.00003 15.1548 4.42904 15.6073 4.39431L18.8446 4.1458C19.0269 4.13181 19.187 4.01948 19.2621 3.85285L20.5442 1.01047Z" fill="#FFC64A"/>
<path d="M34.5442 1.01047C34.7213 0.617917 35.2787 0.617918 35.4558 1.01047L36.7379 3.85285C36.813 4.01948 36.9731 4.13181 37.1554 4.1458L40.3927 4.39431C40.8452 4.42904 41.0211 5.00003 40.6667 5.28339L38.2609 7.20663C38.1076 7.32917 38.0402 7.53007 38.0885 7.72029L38.8267 10.6258C38.935 11.0522 38.4796 11.4005 38.0965 11.1844L35.2456 9.57654C35.0932 9.49055 34.9068 9.49055 34.7544 9.57654L31.9035 11.1844C31.5204 11.4005 31.065 11.0522 31.1733 10.6258L31.9115 7.72029C31.9598 7.53007 31.8924 7.32917 31.7391 7.20663L29.3333 5.28339C28.9789 5.00003 29.1548 4.42904 29.6073 4.39431L32.8446 4.1458C33.0269 4.13181 33.187 4.01948 33.2621 3.85285L34.5442 1.01047Z" fill="#FFC64A"/>
<path d="M48.5442 1.01047C48.7213 0.617917 49.2787 0.617918 49.4558 1.01047L50.7379 3.85285C50.813 4.01948 50.9731 4.13181 51.1554 4.1458L54.3927 4.39431C54.8452 4.42904 55.0211 5.00003 54.6667 5.28339L52.2609 7.20663C52.1076 7.32917 52.0402 7.53007 52.0885 7.72029L52.8267 10.6258C52.935 11.0522 52.4796 11.4005 52.0965 11.1844L49.2456 9.57654C49.0932 9.49055 48.9068 9.49055 48.7544 9.57654L45.9035 11.1844C45.5204 11.4005 45.065 11.0522 45.1733 10.6258L45.9115 7.72029C45.9598 7.53007 45.8924 7.32917 45.7391 7.20663L43.3333 5.28339C42.9789 5.00003 43.1548 4.42904 43.6073 4.39431L46.8446 4.1458C47.0269 4.13181 47.187 4.01948 47.2621 3.85285L48.5442 1.01047Z" fill="#FFC64A"/>
<path d="M62.5442 1.01047C62.7213 0.617917 63.2787 0.617918 63.4558 1.01047L64.7379 3.85285C64.813 4.01948 64.9731 4.13181 65.1554 4.1458L68.3927 4.39431C68.8452 4.42904 69.0211 5.00003 68.6667 5.28339L66.2609 7.20663C66.1076 7.32917 66.0402 7.53007 66.0885 7.72029L66.8267 10.6258C66.935 11.0522 66.4796 11.4005 66.0965 11.1844L63.2456 9.57654C63.0932 9.49055 62.9068 9.49055 62.7544 9.57654L59.9035 11.1844C59.5204 11.4005 59.065 11.0522 59.1733 10.6258L59.9115 7.72029C59.9598 7.53007 59.8924 7.32917 59.7391 7.20663L57.3333 5.28339C56.9789 5.00003 57.1548 4.42904 57.6073 4.39431L60.8446 4.1458C61.0269 4.13181 61.187 4.01948 61.2621 3.85285L62.5442 1.01047Z" fill="#FFC64A"/>
</svg>
