<svg width="17" height="17" viewBox="0 0 17 17" fill="none" xmlns="http://www.w3.org/2000/svg">
<path d="M0 5.74546C0.0292924 5.70309 0.0463655 5.60834 0.0682989 5.55464C0.127045 5.41083 0.214637 5.24996 0.318533 5.13398C0.447538 4.98997 0.657853 4.88709 0.821514 4.77541L2.11952 3.9027C2.208 3.84358 2.46256 3.68097 2.5244 3.62455C2.55332 3.59816 2.54295 2.89521 2.54172 2.82366C2.53381 2.36663 2.50747 1.97144 2.85771 1.62471C3.10057 1.38428 3.36593 1.28372 3.70624 1.28848C5.934 1.27518 8.16227 1.28755 10.3899 1.28547L12.4747 1.28751L13.0898 1.28753C13.2354 1.28748 13.3907 1.28252 13.5354 1.30199C13.9549 1.35963 14.3321 1.7018 14.4338 2.11263C14.4816 2.30597 14.466 2.59525 14.4658 2.8025L14.4654 3.60724L15.8318 4.53287L16.2897 4.83599C16.4521 4.94278 16.6303 5.04102 16.7589 5.18825C16.8429 5.28457 16.9042 5.38993 16.9433 5.51165C16.959 5.56044 16.9759 5.62532 17 5.66922V14.6915C16.9797 14.7311 16.9628 14.7937 16.9493 14.8383C16.8573 15.1355 16.6404 15.3649 16.3709 15.51C16.0132 15.7023 15.649 15.6653 15.2582 15.6646L14.2259 15.6629L10.7958 15.6605L3.80426 15.6623L2.03236 15.6644L1.45828 15.6657C1.35032 15.6658 1.21773 15.6696 1.11193 15.6614C1.02421 15.6548 0.937631 15.6374 0.854134 15.6097C0.532133 15.5042 0.231058 15.2403 0.0896891 14.9304C0.053116 14.8502 0.0387959 14.7357 0 14.666V5.74546Z" fill="#4F4F4F"/>
<path d="M3.77518 2.32687C3.86549 2.31833 4.01842 2.32304 4.11313 2.32338L4.70101 2.32442L6.83858 2.32488L13.4461 2.3242L13.4495 5.60451L13.4476 6.57572C13.4471 6.76057 13.4516 6.97233 13.4412 7.15483C13.374 7.18887 13.2683 7.26198 13.205 7.3044L12.827 7.55676L11.3559 8.51724C11.0032 8.7573 10.6403 8.98914 10.2848 9.22638L8.50211 10.414C8.30206 10.2949 8.08343 10.1332 7.88531 10.0025L6.46434 9.06169C5.50676 8.42452 4.51451 7.79313 3.56939 7.14005C3.56335 6.90195 3.56963 6.64035 3.5695 6.40033L3.56896 4.63621C3.56492 4.1671 3.56375 3.69796 3.56545 3.22883C3.56554 3.00025 3.5636 2.77111 3.56827 2.54265C3.57111 2.40319 3.64675 2.34813 3.77518 2.32687Z" fill="#FEFEFE"/>
<path d="M5.59157 3.55577C5.65526 3.54772 5.80646 3.55196 5.87631 3.5527C6.03468 3.55465 6.19304 3.55567 6.35141 3.55576L8.03986 3.55475L10.2845 3.55326L10.9948 3.55264C11.221 3.5526 11.4927 3.51954 11.6807 3.66277C11.7889 3.74468 11.8596 3.86662 11.877 4.0012C11.9151 4.31688 11.7101 4.53997 11.399 4.57087C11.0964 4.58262 10.7193 4.57219 10.4111 4.57183L8.65106 4.57286L6.7145 4.56935C6.3571 4.56981 5.99794 4.57304 5.64049 4.5722C5.57814 4.56728 5.48803 4.56644 5.43321 4.53798C5.26758 4.45199 5.14386 4.33065 5.12107 4.13291C5.10373 3.99056 5.14498 3.84727 5.23537 3.73594C5.32954 3.62038 5.44667 3.57155 5.59157 3.55577Z" fill="#4F4F4F"/>
<path d="M11.2179 5.20027C11.4211 5.19691 11.5634 5.19371 11.7239 5.33187C12.0399 5.59739 11.86 6.16951 11.4513 6.19982C11.2566 6.21424 11.0462 6.20587 10.8498 6.20566L9.68959 6.20611L7.09368 6.20733C6.6675 6.20496 6.2413 6.20552 5.81512 6.20898C5.61261 6.21154 5.4309 6.22938 5.27091 6.07544C4.97033 5.78575 5.13461 5.24828 5.5608 5.20898C5.75535 5.19105 5.97086 5.20102 6.16764 5.20089L7.36342 5.20104C8.63963 5.20643 9.94285 5.21635 11.2179 5.20027Z" fill="#4F4F4F"/>
<path d="M5.55743 6.88268C5.65953 6.87297 5.79441 6.87833 5.90012 6.87922L6.37754 6.8802L8.03943 6.88199L10.313 6.88195L11.0192 6.88108C11.2188 6.88057 11.4867 6.84793 11.655 6.96383C12.0456 7.23303 11.9132 7.7728 11.4486 7.8596C11.151 7.87703 10.7336 7.86301 10.4285 7.86301L8.45629 7.86348L6.55938 7.86815C6.2564 7.86893 5.87789 7.88212 5.58167 7.86611C5.02315 7.83592 4.9351 7.00965 5.55743 6.88268Z" fill="#4F4F4F"/>
<path d="M6.42463 10.2764C6.46109 10.294 6.65116 10.428 6.70434 10.4632L7.41083 10.9374C7.66287 11.1058 7.88939 11.2904 8.18907 11.371C8.4128 11.4327 8.64995 11.4259 8.86984 11.3517C9.08981 11.2785 9.2911 11.1323 9.48235 11.0025L10.1293 10.5632C10.2472 10.4825 10.4068 10.3659 10.5254 10.2987L10.5369 10.2923C10.6431 10.3732 10.7715 10.4904 10.8735 10.5808L11.5087 11.1511C12.4208 11.9667 13.3261 12.7898 14.2245 13.6206L14.9133 14.2545C15.0484 14.38 15.2079 14.5362 15.3488 14.653C14.9707 14.6588 14.5798 14.6535 14.2007 14.6539L11.6916 14.654L1.65356 14.6528C1.95041 14.4117 2.25394 14.1046 2.53541 13.8435L4.08948 12.4104L5.59645 11.0424L5.98019 10.6902C6.14125 10.5449 6.27077 10.4347 6.42463 10.2764Z" fill="#FEFEFE"/>
<path d="M0.989014 6.66211C1.04807 6.6931 1.16658 6.77488 1.22905 6.81536C1.39722 6.9237 1.56437 7.03362 1.73049 7.14509L2.96771 7.97174L4.72826 9.14185C4.99732 9.32073 5.28856 9.50559 5.54981 9.69145C5.45308 9.77495 5.35248 9.8656 5.2602 9.95383C4.64516 10.5419 4.00148 11.1014 3.38357 11.6856C2.81373 12.2 2.24863 12.7197 1.68835 13.2445L1.0031 13.8668C1.00878 13.7068 1.00406 13.513 1.00415 13.3503L1.00498 12.3586L1.00523 9.33294L0.999747 7.47574C0.997987 7.26236 1.01151 6.86144 0.989014 6.66211Z" fill="#FEFEFE"/>
<path d="M15.9703 6.68896L15.9828 6.69891C15.9947 6.94656 15.987 7.2625 15.987 7.51499L15.988 8.97727L15.987 13.8812C15.7617 13.6546 15.5255 13.4427 15.2919 13.2256C14.7486 12.7207 14.1855 12.2352 13.6497 11.7226L13.0353 11.1589C12.8712 11.0072 12.7101 10.8522 12.5447 10.7019C12.1838 10.3741 11.7942 10.0349 11.4526 9.68807C11.6188 9.56563 11.8075 9.45042 11.9804 9.33587L12.814 8.78088L14.8752 7.41537L15.4757 7.02144C15.647 6.91124 15.8096 6.81518 15.9703 6.68896Z" fill="#FEFEFE"/>
<path d="M2.52717 4.85498L2.53764 4.8584C2.5456 4.89034 2.54471 5.20198 2.54511 5.26344L2.54817 6.50263C2.50246 6.46845 2.45149 6.43771 2.40393 6.40562C2.20603 6.27211 2.00944 6.1388 1.80832 6.01009C1.68529 5.92902 1.41141 5.73038 1.29517 5.67299C1.70434 5.40276 2.11668 5.11961 2.52717 4.85498Z" fill="#FEFEFE"/>
<path d="M14.4629 4.85254C14.5104 4.8896 14.6017 4.94434 14.6553 4.97898C14.767 5.05139 14.8782 5.12467 14.9887 5.19882C15.2151 5.35037 15.4684 5.54023 15.6996 5.67608C15.5746 5.74441 15.3457 5.90592 15.2201 5.98907C14.9657 6.14954 14.7126 6.31198 14.4607 6.47636C14.4604 5.94471 14.4507 5.38095 14.4629 4.85254Z" fill="#FEFEFE"/>
</svg>
