<svg width="20" height="20" viewBox="0 0 20 20" fill="none" xmlns="http://www.w3.org/2000/svg">
<g clip-path="url(#clip0_3161_315)">
<path d="M5.50212 0H5.85429C5.96705 0.0410199 6.25798 0.0357714 6.3979 0.0551034C6.71868 0.102103 7.03487 0.17632 7.34307 0.276952C7.59111 0.356729 7.90517 0.493547 8.13583 0.618338C8.32875 0.722709 8.4754 0.833855 8.68813 0.930709C9.52447 1.31147 10.5061 1.28956 11.3452 0.929321C11.5446 0.843715 11.7186 0.690256 11.8987 0.594975C12.1845 0.443818 12.5619 0.306379 12.8721 0.212691C13.0983 0.14433 13.3563 0.105199 13.5873 0.060252C13.6871 0.040828 13.9155 0.0352953 13.9974 0H14.6738C14.7892 0.0483964 14.9948 0.0325928 15.1233 0.0562423C15.3594 0.0996621 15.5899 0.14528 15.8213 0.210075C16.6342 0.436882 17.387 0.840618 18.0256 1.39237C18.5011 1.79589 18.8945 2.26286 19.2384 2.78305C19.3549 2.95917 19.3323 2.98601 19.5267 3.07502C19.6442 3.1291 19.74 3.22134 19.7985 3.33675C19.9144 3.56413 19.8648 3.7833 19.7472 3.99596C19.8052 4.24389 19.8698 4.47334 19.9184 4.72516C19.9449 4.86325 19.965 5.19544 20 5.30386V6.17613L19.9966 6.18728C19.9654 6.29257 19.9483 6.47214 19.9348 6.588C19.9174 6.73659 19.8977 6.84983 19.8699 6.99643C19.762 7.54515 19.6144 8.0853 19.4281 8.61262C18.9835 9.89326 18.4185 11.1263 17.8088 12.3347C17.5892 12.7699 17.4231 13.2389 17.2256 13.685C16.973 14.2872 16.7459 14.9028 16.5028 15.5088C16.206 16.2329 15.9035 16.9548 15.5957 17.6742C15.4379 18.0437 15.2917 18.4204 15.1318 18.7894C14.8844 19.3604 14.3382 19.8351 13.7244 19.9619C13.6893 19.9691 13.63 19.9829 13.6016 20H13.0586C13.0047 19.9728 12.8871 19.9578 12.8198 19.9424C12.7389 19.9233 12.6595 19.898 12.5824 19.8668C12.2816 19.7421 12.0169 19.544 11.8123 19.2907C11.554 18.9668 11.4021 18.597 11.3772 18.1812C11.3671 18.0104 11.3752 17.8125 11.374 17.6397C11.3727 17.4109 11.3604 17.1824 11.3376 16.9548C11.2755 16.2749 11.136 15.5874 10.8671 14.9578C10.7346 14.6477 10.5385 14.2697 10.2056 14.1391C10.0608 14.0822 9.90049 14.0824 9.7587 14.148C9.03292 14.4839 8.70932 16.367 8.65922 17.0835C8.64617 17.27 8.63479 17.4595 8.63446 17.6465C8.63386 17.9971 8.66578 18.3244 8.54615 18.6638C8.3461 19.2341 7.90475 19.6871 7.33987 19.902C7.22422 19.9451 6.99774 19.9637 6.92168 20H6.48714C6.4302 19.9681 6.25557 19.9483 6.18494 19.9261C6.07852 19.8925 5.94735 19.846 5.84888 19.7937C5.5278 19.6199 5.11285 19.2597 4.95082 18.9251C4.16313 17.2988 3.56202 15.5674 2.85841 13.9048C2.69369 13.5205 2.52499 13.138 2.35233 12.7572C2.2659 12.5619 2.18454 12.3604 2.09614 12.1667C2.04421 12.0529 1.9632 11.9183 1.90315 11.805C1.81415 11.6349 1.72841 11.463 1.64598 11.2896C1.51534 11.0156 1.38704 10.7178 1.26481 10.4382C0.990449 9.8208 0.741519 9.19239 0.518647 8.55458C0.337356 8.02328 0.198546 7.47843 0.103526 6.92516C0.0838282 6.80875 0.0678586 6.69175 0.0556423 6.57432C0.0453722 6.46794 0.0353608 6.24467 0 6.1495V5.3668C0.0373534 5.28169 0.0413664 5.07783 0.0541921 4.97763C0.0655455 4.88893 0.0787249 4.80503 0.0939227 4.71617C0.164814 4.28777 0.286511 3.86936 0.456435 3.46977C1.14031 1.89728 2.54887 0.632182 4.21694 0.199725C4.41473 0.150395 4.61466 0.11014 4.81612 0.0790829C4.92904 0.0627381 5.45643 0.0220431 5.50212 0ZM13.8047 18.4312C13.9302 18.2827 14.1413 17.6917 14.2352 17.4734C14.6327 16.5549 15.0178 15.6311 15.3904 14.7021C15.5862 14.2207 15.7696 13.7295 15.9759 13.2538C16.7563 11.454 17.6994 9.71141 18.2994 7.83758C18.6049 6.88349 18.8051 5.87157 18.5919 4.87831C18.5689 4.77139 18.5361 4.66665 18.5141 4.55982C18.442 4.58191 18.3629 4.60783 18.2915 4.62841C18.1317 4.67444 18.0718 4.69271 17.9962 4.84902C17.8433 5.16547 17.682 5.48007 17.5354 5.79972C17.4672 5.94627 17.3115 6.31584 17.2272 6.42946C17.173 6.50232 17.0976 6.5566 17.0112 6.58483C16.8841 6.62584 16.7458 6.61337 16.628 6.55026C16.4469 6.45228 16.4085 6.29564 16.3312 6.12231C16.1271 5.66413 15.9457 5.19528 15.7391 4.73861C15.4178 4.56199 15.0584 4.41612 14.708 4.25153C14.3306 4.07423 13.8369 3.90005 14.0873 3.34656C14.1924 3.11418 14.5555 3.04162 14.7653 2.92985C15.1265 2.76062 15.5031 2.61494 15.8671 2.45124C15.9127 2.36358 16.1491 1.85246 16.1448 1.78711C16.0656 1.6618 15.3827 1.46853 15.2141 1.43064C14.3453 1.24005 13.4379 1.34072 12.632 1.71711C12.3138 1.86885 12.0637 2.04849 11.7148 2.18396C11.1079 2.41966 10.645 2.5022 10 2.49967C9.23714 2.49668 8.54774 2.3125 7.86057 1.98736C7.67131 1.89781 7.49289 1.7693 7.30987 1.68425C6.68322 1.39302 6.06357 1.30041 5.38038 1.33252C4.13327 1.44979 3.10995 1.96684 2.31635 2.94669C1.56049 3.8828 1.2419 5.07183 1.36091 6.26348C1.44628 7.11841 1.6928 7.87361 1.98605 8.67474C2.27497 9.46401 2.62974 10.2099 2.97986 10.971C3.34904 11.7667 3.7096 12.5663 4.06148 13.3698C4.62106 14.6465 5.07583 15.9784 5.65942 17.2615C5.7712 17.5072 5.88578 17.7517 6.00315 17.9947C6.06195 18.1169 6.11956 18.2479 6.18908 18.364C6.41129 18.7349 6.91731 18.7854 7.19043 18.4408C7.24521 18.3725 7.2833 18.2924 7.30165 18.2067C7.3273 18.0858 7.31429 17.8424 7.31395 17.7094C7.31158 17.4834 7.31937 17.2573 7.33727 17.032C7.46374 15.5091 7.92498 13.0375 9.78086 12.7782C10.279 12.7086 10.8141 12.8837 11.2109 13.1823C12.1234 13.9122 12.5011 15.482 12.6405 16.5919C12.6762 16.8757 12.6884 17.1451 12.6998 17.4256C12.7075 17.6139 12.6736 18.047 12.7118 18.2026C12.7443 18.3381 12.8206 18.4591 12.9289 18.5468C13.1962 18.7591 13.593 18.7198 13.7981 18.4401L13.8047 18.4312ZM16.0447 3.64797C16.4725 3.88312 16.6857 4.01521 16.822 4.50449C16.8307 4.53605 16.8479 4.5994 16.876 4.61252C16.8995 4.59444 16.9004 4.58467 16.9125 4.55725C17.081 4.16228 17.123 3.9777 17.5232 3.79333C17.6021 3.75704 17.7017 3.68531 17.7909 3.64618C17.5873 3.52365 17.296 3.4182 17.1427 3.23729C17.0799 3.1632 16.9527 2.80922 16.8616 2.78699C16.7597 2.92422 16.7285 3.02347 16.6519 3.1745C16.523 3.42829 16.2683 3.4993 16.0447 3.64797Z" fill="#2D2D2D"/>
<path d="M12.2463 8.54868C12.8888 8.52456 13.1379 9.25086 12.7021 9.7123C12.0263 10.4468 11.1258 10.9569 10.1123 10.9964C9.239 11.0304 8.28274 10.6198 7.63762 10.0322C7.41508 9.83637 7.12711 9.60687 7.0979 9.28973C7.06369 8.91842 7.30884 8.59319 7.68829 8.55789C8.09874 8.5197 8.29364 8.87347 8.57185 9.11521C9.19385 9.65571 10.0202 9.84115 10.7912 9.51783C11.0898 9.39319 11.3835 9.20855 11.609 8.96881C11.827 8.7369 11.9046 8.57825 12.2463 8.54868Z" fill="#2D2D2D"/>
<path d="M4.09015 3.57803C4.34638 3.55788 4.41337 3.65526 4.50671 3.87731C4.63805 4.18975 4.74523 4.52407 4.89474 4.82774C4.95494 4.86983 5.06525 4.91501 5.13497 4.94626C5.271 5.00848 5.40842 5.06762 5.54712 5.12363C5.66766 5.17156 5.79642 5.21393 5.9118 5.27312C6.00044 5.31859 6.09887 5.39571 6.12761 5.49508C6.15003 5.57257 6.13575 5.6877 6.08058 5.74939C5.9424 5.90393 5.1835 6.11157 4.95565 6.27684C4.80923 6.38305 4.60676 7.15605 4.4742 7.37146C4.41503 7.46762 4.35001 7.5165 4.24111 7.54318C3.91706 7.56702 3.88725 7.3466 3.77918 7.11323C3.65775 6.85098 3.56615 6.55584 3.4368 6.30133C3.35061 6.24713 3.25244 6.21099 3.15913 6.17088C3.0151 6.10894 2.87148 6.04714 2.72623 5.98805C2.6149 5.94277 2.49741 5.90164 2.39116 5.84566C2.31341 5.80471 2.23038 5.73734 2.20621 5.64885C2.17473 5.53367 2.23498 5.41381 2.32377 5.3423C2.43681 5.25126 2.98295 5.04634 3.1437 4.9838C3.22694 4.9514 3.32907 4.92436 3.40329 4.87444C3.58097 4.75493 3.7416 3.96573 3.87604 3.74065C3.92794 3.65376 3.99163 3.60173 4.09015 3.57803Z" fill="#2D2D2D"/>
<path d="M7.32123 5.60891C7.5123 5.5931 7.79131 5.59054 7.96029 5.68742C8.08703 5.76057 8.17827 5.88247 8.21272 6.02469C8.25177 6.18071 8.24484 6.46756 8.14836 6.60083C8.03357 6.75937 7.93835 6.81235 7.7539 6.8549C7.35718 6.86551 6.90018 6.8893 6.81593 6.36771C6.75479 5.98933 6.91286 5.66272 7.32123 5.60891Z" fill="#2D2D2D"/>
<path d="M12.6593 5.60002C12.8814 5.59716 13.1342 5.56983 13.3143 5.70748C13.4385 5.79887 13.51 5.92461 13.5324 6.07643C13.5889 6.45969 13.4249 6.79457 13.013 6.84975C12.5824 6.87895 12.1808 6.82259 12.1322 6.30113C12.0984 5.93865 12.2636 5.63266 12.6593 5.60002Z" fill="#2D2D2D"/>
</g>
<defs>
<clipPath id="clip0_3161_315">
<rect width="20" height="20" fill="white"/>
</clipPath>
</defs>
</svg>
