<svg width="15" height="15" viewBox="0 0 15 15" fill="none" xmlns="http://www.w3.org/2000/svg">
<g clip-path="url(#clip0_3161_478)">
<path d="M3.27717 0H11.7012C11.7785 0.0314694 11.9194 0.0285912 12.0073 0.042851C13.1071 0.221525 14.1265 0.947307 14.628 1.9614C14.7659 2.24231 14.8685 2.53921 14.9335 2.84533C14.9516 2.9331 14.9755 3.15825 15 3.22455V11.5994C14.9626 11.7048 14.9644 11.8912 14.9454 12.0089C14.7105 13.4652 13.55 14.6793 12.0916 14.9371C11.9592 14.9604 11.7731 14.9652 11.6492 15H3.2612C3.22019 14.9851 2.9851 14.9528 2.9208 14.9405C2.69533 14.8986 2.47485 14.8332 2.26296 14.7455C1.28544 14.3601 0.5264 13.565 0.186737 12.5706C0.140707 12.4367 0.105931 12.3078 0.0709729 12.1714C0.0474482 12.0796 0.0360975 11.8712 0 11.7974V3.2462C0.0273472 3.19642 0.0397868 2.97832 0.0522245 2.91039C0.0649151 2.84107 0.0814849 2.7713 0.0982346 2.70217C0.159316 2.45856 0.245825 2.22205 0.356337 1.99652C0.791448 1.11463 1.57 0.45042 2.50941 0.159644C2.70198 0.101211 2.89507 0.0544233 3.09538 0.0331299C3.14775 0.0275626 3.2304 0.0178323 3.27717 0ZM11.4885 14.1346C13.1048 14.0703 14.2035 12.7891 14.1396 11.2243C14.13 10.9874 14.1366 10.7306 14.1368 10.4921L14.1369 8.27886L14.1368 4.97037L14.139 3.97164C14.1394 3.78647 14.144 3.57885 14.1365 3.39637C14.1054 2.70678 13.8021 2.05769 13.2929 1.59147C12.7642 1.10724 12.1013 0.852898 11.387 0.866755C11.1479 0.871392 10.9044 0.86803 10.6649 0.867539L8.68352 0.865569L5.22322 0.866111C4.67361 0.865181 4.09178 0.848672 3.5469 0.860654C2.26028 0.86855 1.19682 1.74932 0.916223 2.99711C0.831592 3.37345 0.862771 3.88063 0.863665 4.27236L0.864434 5.81625L0.864185 10.1903C0.865239 10.5875 0.863123 10.988 0.863232 11.3842C0.863459 12.1441 1.12989 12.8395 1.67725 13.3736C2.03271 13.7204 2.49302 13.9753 2.98165 14.0791C3.37181 14.1619 3.84825 14.1336 4.25515 14.1333L5.88261 14.1327L9.57356 14.1338C10.2071 14.1342 10.8567 14.1425 11.4885 14.1346Z" fill="#4F4F4F"/>
<path d="M9.81426 6.01641C10.3642 5.98539 10.8499 6.10764 11.3185 6.40005C11.8872 6.76122 12.3098 7.31056 12.4649 7.97054C12.5571 8.36283 12.5368 8.73739 12.5359 9.13421L12.535 10.2009L12.5351 11.6829C12.5353 11.808 12.5441 12.6022 12.5245 12.6331C12.4525 12.644 12.3487 12.641 12.2735 12.641H11.8981C11.5105 12.644 11.1229 12.6443 10.7353 12.6421C10.7478 12.415 10.7384 12.1061 10.7395 11.8727C10.7427 11.2879 10.7427 10.7032 10.7394 10.1184L10.7402 9.16607C10.7413 8.961 10.7557 8.71813 10.7275 8.51935C10.619 7.75338 9.82729 7.31041 9.10468 7.53146C8.94326 7.58089 8.82322 7.65956 8.68955 7.75506C8.49011 7.9162 8.31059 8.1817 8.24643 8.42999C8.18777 8.65682 8.19729 8.94093 8.19765 9.17647L8.19868 9.81002L8.19824 11.9131C8.19839 12.025 8.20542 12.5691 8.1841 12.6296C8.14096 12.6462 7.87517 12.6401 7.81679 12.6401H6.86531C6.74479 12.6406 6.55709 12.6301 6.44312 12.6435C6.45781 12.384 6.45081 12.0739 6.45082 11.8106L6.45084 10.4232L6.45087 6.27491C6.61065 6.28078 6.80621 6.26814 6.97229 6.27047C7.29006 6.27493 7.61062 6.27566 7.92827 6.26994C7.92805 6.29259 7.92739 6.36568 7.92929 6.38396C7.93772 6.46567 7.92636 7.03438 7.94812 7.06495C7.95412 7.06269 8.11167 6.87239 8.13298 6.84796C8.55984 6.35732 9.16526 6.05788 9.81426 6.01641Z" fill="#4F4F4F"/>
<path d="M2.4732 6.2703C2.61987 6.27672 2.81541 6.27038 2.96603 6.27002L3.9412 6.26855L4.98205 6.2702C5.17682 6.27074 5.38639 6.27653 5.57924 6.26887C5.5704 6.35312 5.57959 6.59346 5.57988 6.68725L5.58053 7.57634L5.58165 11.0196L5.5818 12.1031C5.58181 12.231 5.58994 12.5227 5.57946 12.6301L5.56553 12.6405C5.31293 12.6327 5.02508 12.6393 4.76929 12.6391C4.30797 12.6358 3.84663 12.6356 3.38531 12.6385L2.76554 12.6395C2.68747 12.6393 2.52877 12.6322 2.46143 12.6414L2.4657 7.96577L2.46515 6.79308C2.46507 6.71117 2.45974 6.33627 2.4732 6.2703ZM3.31552 11.7628C3.78641 11.7609 4.28271 11.7593 4.75265 11.7692L4.75835 8.25324C4.76001 7.87795 4.74951 7.48303 4.75728 7.11075L3.74852 7.11056C3.66308 7.11043 3.38754 7.1174 3.32411 7.10865C3.3137 7.24156 3.32001 7.41945 3.32052 7.55737L3.32169 8.29272L3.32105 10.6061L3.31895 11.3649C3.31843 11.4898 3.32152 11.6405 3.31552 11.7628Z" fill="#4F4F4F"/>
<path d="M3.8987 2.37046C4.77034 2.30354 5.53214 2.95369 5.60306 3.82501C5.67398 4.69634 5.02734 5.46112 4.15635 5.53604C3.27969 5.61144 2.50883 4.95966 2.43745 4.08266C2.36607 3.20566 3.02139 2.4378 3.8987 2.37046ZM4.1125 4.67814C4.51277 4.63022 4.7991 4.26789 4.75318 3.86739C4.70727 3.46689 4.34638 3.17875 3.94565 3.22266C3.54208 3.26688 3.25145 3.6309 3.29769 4.03424C3.34393 4.43759 3.70939 4.72639 4.1125 4.67814Z" fill="#4F4F4F"/>
</g>
<defs>
<clipPath id="clip0_3161_478">
<rect width="15" height="15" fill="white"/>
</clipPath>
</defs>
</svg>
