<svg width="50" height="50" viewBox="0 0 50 50" fill="none" xmlns="http://www.w3.org/2000/svg">
<g clip-path="url(#clip0_3161_160)">
<path d="M15.9693 14.026C15.7935 10.9482 16.5219 7.96745 18.837 5.77941C19.2687 5.37138 19.7177 4.96633 20.1395 4.54882C20.998 3.69008 21.8642 2.83908 22.738 1.99593C23.2428 1.50025 23.7583 0.970231 24.3078 0.520583C24.49 0.390927 24.709 0.342502 24.928 0.328759C25.4275 0.297394 25.698 0.50885 26.0332 0.829196C27.1169 1.86554 28.1887 2.91452 29.2644 3.95905C30.1167 4.78674 31.0042 5.58784 31.7886 6.48237C33.5518 8.57812 34.0122 10.8085 34.0986 13.4846C34.1033 13.6243 34.1069 13.764 34.1096 13.9038C36.6018 12.6406 39.0564 12.3169 41.7366 13.1914C42.3708 13.3987 42.989 13.6519 43.5864 13.949C44.9365 14.6202 46.2681 15.5009 47.5891 16.241C48.22 16.5943 48.8545 17.0013 49.4727 17.3762C49.8257 17.611 49.8193 17.8074 50 18.1185V18.6441C49.8101 18.8936 49.3367 20.0754 49.1733 20.441C48.6641 21.5806 48.2146 22.7786 47.7246 23.9279C47.4932 24.4705 47.2937 25.0107 47.0078 25.5298C46.4504 26.5195 45.7537 27.4243 44.9385 28.2156C43.4746 29.6352 41.8262 30.5271 39.8203 30.9536C39.5178 31.0178 39.0498 31.1094 38.7493 31.105C39.4148 31.7039 40.1682 32.6711 40.6333 33.4446C41.8809 35.5605 42.387 38.0325 42.0715 40.4687C41.9578 41.4116 41.783 41.8933 41.5129 42.792C41.2612 43.6299 40.988 44.4783 40.7424 45.3149C40.5869 45.8428 40.4343 46.3716 40.2844 46.9011C40.104 47.5447 39.9668 48.3169 39.4106 48.75C38.7266 49.2827 37.7686 48.9292 37.0176 48.7207C35.9055 48.4028 34.7725 48.0769 33.6404 47.8406C30.8635 47.2612 28.2285 46.1074 26.3711 43.8877C26.1384 43.6099 25.9099 43.3337 25.6965 43.04C25.4353 42.6807 25.21 42.2898 24.9504 41.9309C24.4561 43.0107 23.1324 44.428 22.254 45.2026C20.2484 46.9707 17.863 47.4419 15.3557 48.0959C14.5612 48.3071 13.7654 48.5132 12.9683 48.7141C12.1891 48.9045 11.2436 49.2571 10.5484 48.6792C10.0054 48.228 9.87424 47.3809 9.68149 46.7209L8.94353 44.186L8.29321 42.0215C7.85701 40.5193 7.69172 39.3909 7.86772 37.8093C8.11194 35.7507 8.93591 33.8037 10.2437 32.1953C10.5811 31.7817 10.8964 31.4265 11.3172 31.0896C10.6455 31.0186 10.283 30.9739 9.62578 30.8079C6.86423 30.1101 4.43811 28.1606 3.04324 25.6924C2.68625 25.0608 2.32292 24.0993 2.05312 23.4216L1.10134 21.0762L0.390146 19.3519C0.290925 19.1094 0.134226 18.6593 0 18.4484V17.8864C0.473401 17.2331 1.11774 16.9503 1.80098 16.5665L3.48333 15.6137C4.66802 14.944 5.7241 14.2584 6.98481 13.7054C10.0331 12.3684 13.0181 12.4286 15.9693 14.026ZM23.4455 22.2255C23.5161 21.2824 23.7272 20.2467 23.8055 19.2779C23.974 17.1913 24.0453 15.0286 23.815 12.9481C23.7722 12.5913 23.7131 12.2367 23.6378 11.8854C23.4739 11.1104 23.1373 10.2865 23.8896 9.63505C24.2091 9.35842 24.5481 9.31083 24.9604 9.32536C26.0522 9.58261 26.1624 10.2522 26.3328 11.233C26.8064 13.959 26.823 16.7406 26.6106 19.4932C26.5647 20.1102 26.5056 20.7262 26.4336 21.3407C26.4094 21.535 26.3535 21.9321 26.3269 22.147C26.3372 22.1586 26.3474 22.1702 26.3577 22.1817C26.5962 22.1378 29.4753 18.6427 29.7327 18.2145C30.374 17.1467 31.2866 14.9604 31.3459 13.6839C31.4163 12.1665 30.949 9.97023 30.0745 8.68378C29.7598 8.22082 29.301 7.80419 28.9038 7.41491L27.4324 5.97194L25.8113 4.4006C25.645 4.24204 25.1526 3.7364 24.9814 3.67399L22.0335 6.59079C21.4562 7.16347 20.783 7.77568 20.264 8.3935C18.4352 10.5707 18.3236 13.5779 19.2321 16.1574C20.0828 18.5729 21.7662 20.3697 23.4455 22.2255ZM28.7297 23.7798C29.3799 23.4236 30.0557 23.0252 30.7085 22.6919C33.2642 21.3873 35.9675 20.3877 38.8286 20.029C39.3984 19.9576 40.3672 19.81 40.9182 19.9483C41.2681 20.036 41.5854 20.3285 41.7524 20.6506C41.9265 20.9873 41.9563 21.3802 41.835 21.7392C41.4783 22.7996 40.2244 22.6709 39.3162 22.7749C38.8789 22.8248 38.4441 22.8938 38.0127 22.9816C36.7444 23.2359 34.9324 23.8549 33.7498 24.367C33.4534 24.4734 33.0012 24.687 32.7063 24.8242C31.925 25.1824 31.1602 25.5754 30.4138 26.0022C30.0432 26.2122 29.6201 26.4797 29.25 26.6721C30.0325 26.9805 30.7905 27.2917 31.584 27.5586C34.6187 28.5793 37.9468 28.9646 40.9578 27.6323C42.4092 26.99 43.7083 25.7544 44.5103 24.3769C44.7 24.0373 44.8347 23.6712 44.9858 23.3135C45.2202 22.7586 45.467 22.2054 45.6814 21.6423C45.9893 20.8334 46.3691 20.0435 46.6812 19.2381C46.7129 19.1561 46.741 19.0728 46.7651 18.9883C46.322 18.7642 45.8269 18.4357 45.3879 18.1823C43.2544 16.9504 40.9773 15.3735 38.4045 15.5368C37.9224 15.5859 37.1636 15.6995 36.6707 15.872C35.4263 16.3073 34.0017 17.1227 33.0808 18.0813C32.9634 18.2037 32.709 18.7956 32.5923 18.9878C32.3506 19.3867 32.1155 19.7474 31.8315 20.1143C31.2432 20.881 30.6274 21.626 29.9851 22.3481C29.7131 22.6537 28.9407 23.4679 28.7297 23.7798ZM21.8059 29.3518C21.0943 29.5886 20.3905 29.8308 19.6751 30.0596C18.6918 30.3738 17.4993 30.6206 16.5624 31.0168C14.6052 31.8445 12.4906 33.4077 11.5223 35.3391C10.7609 36.8767 10.3948 38.6631 10.7553 40.3611C10.9361 41.2126 11.2406 42.0791 11.4807 42.9163C11.7734 43.937 12.053 44.97 12.4064 45.9707C13.6389 45.6186 14.8748 45.2786 16.1139 44.9502C16.5007 44.845 16.9075 44.7429 17.2985 44.6543C19.4257 44.1711 21.3122 42.6523 22.3687 40.7588C22.5044 40.5149 22.6281 40.2644 22.7395 40.0083C23.5306 38.0496 23.5581 36.2788 23.5349 34.199C23.529 33.666 23.5764 32.9814 23.5409 32.4717C23.2264 33.1567 22.8089 33.835 22.4013 34.4731C21.214 36.3318 19.8283 38.1584 18.3273 39.7739C18.0077 40.1179 16.7263 41.1858 16.2969 41.3506C15.947 41.4839 15.5583 41.4709 15.218 41.3147C14.4801 40.969 14.2499 40.1157 14.6119 39.4194C14.8463 39.0186 15.2706 38.7927 15.6086 38.491C16.6203 37.5872 17.4636 36.5225 18.2879 35.4512C18.7623 34.8345 19.2231 34.1985 19.6573 33.5544C20.3813 32.4807 21.0887 31.3735 21.5576 30.1614C21.6279 29.9797 21.8163 29.5718 21.8382 29.3931C21.8105 29.3518 21.8207 29.3599 21.8059 29.3518ZM26.2747 32.2163C26.4272 34.2568 26.1604 36.3855 26.5308 38.4058C26.6226 38.9075 26.8608 39.5005 27.072 39.9724C28.1108 42.1248 29.9648 43.7739 32.2236 44.5544C32.501 44.6516 32.8042 44.7495 33.0879 44.8235C34.5974 45.2161 36.1375 45.5725 37.6255 46.0434C37.981 44.918 38.2944 43.7749 38.6228 42.6423C38.8181 41.969 39.0872 41.3235 39.2522 40.6392C39.6975 38.7922 39.2954 36.8247 38.4219 35.1641C37.1807 32.8042 34.6631 31.3935 32.1875 30.6521C31.7676 30.5261 31.3367 30.4226 30.9229 30.2961C30.5112 30.1707 30.0583 29.9971 29.6509 29.8491C29.3208 29.729 28.9934 29.6013 28.6692 29.4661C28.5273 29.4084 28.1521 29.2505 28.0112 29.2197C28.0322 29.3643 28.261 29.8498 28.3318 30.0159C29.6606 33.1343 31.7551 35.989 34.2327 38.2947C34.5271 38.5684 35.2739 39.053 35.4182 39.3691C36.083 40.8249 34.4468 42.0181 33.1929 41.0539C30.9221 39.3081 29.1313 37.0227 27.5979 34.6269C27.2969 34.1528 27.0149 33.6357 26.7402 33.1516C26.5588 32.8323 26.4858 32.533 26.2747 32.2163ZM10.8616 15.5381C9.39167 15.6585 8.49534 16.0316 7.20942 16.7102C5.84819 17.4284 4.57756 18.2701 3.24045 19.0097C3.60964 20.0498 4.08687 21.0697 4.49592 22.0952C4.65728 22.5303 4.88796 22.9774 5.04463 23.4102C5.72554 25.2915 7.20684 26.7617 8.99768 27.6108C12.5535 29.2974 16.5894 28.1108 20.1005 26.9258C20.2936 26.8606 20.4908 26.7866 20.685 26.7295C20.088 26.3791 19.4836 25.9856 18.8767 25.6602C17.8993 25.1357 16.8587 24.5901 15.8318 24.1726C14.0773 23.4435 12.2321 22.8873 10.3417 22.6676C9.55525 22.5762 8.70164 22.6457 8.32705 21.7745C8.17444 21.4146 8.17678 21.0077 8.3335 20.6496C8.77141 19.6519 9.73699 19.848 10.6046 19.9425C13.0511 20.2003 15.4356 20.8741 17.6553 21.9348C18.5266 22.3583 19.3879 22.802 20.2385 23.2656C20.5125 23.4175 20.8326 23.6592 21.0783 23.7805C19.7657 22.2018 18.3262 20.6597 17.3058 18.863C16.76 17.9021 17.0233 17.9096 16.0227 17.2381C14.6481 16.3155 13.4069 15.7186 11.7346 15.5645C11.4445 15.5366 11.1529 15.5279 10.8616 15.5381Z" fill="#40505F"/>
</g>
<defs>
<clipPath id="clip0_3161_160">
<rect width="50" height="50" fill="white"/>
</clipPath>
</defs>
</svg>
