<svg width="20" height="20" viewBox="0 0 20 20" fill="none" xmlns="http://www.w3.org/2000/svg">
<g clip-path="url(#clip0_3161_306)">
<path d="M10.0068 2.72331C10.1173 2.54268 10.2597 2.39796 10.397 2.243C12.107 0.312742 14.7262 -0.729081 17.083 0.750583C18.7264 1.78232 19.6071 3.42307 19.9148 5.317C19.9412 5.47574 19.951 5.84092 20 5.9731V7.00801C19.9683 7.09909 19.9629 7.35203 19.955 7.45828C19.9427 7.61518 19.9253 7.77164 19.9028 7.92741C19.7947 8.66119 19.6077 9.38114 19.3449 10.0747C17.8104 14.1369 13.9908 17.5874 10.3805 19.8773C10.201 19.9806 9.93984 20.0094 9.74848 19.9308C9.38696 19.7821 9.05007 19.5167 8.72779 19.2942C5.68088 17.19 2.84601 14.551 1.15165 11.2119C0.689109 10.3004 0.379135 9.37992 0.162527 8.38177C0.119477 8.18339 0.0406225 7.26238 0 7.17533V5.93028C0.0389621 5.85671 0.0468586 5.54097 0.0598609 5.43555C0.328939 3.25401 1.54457 1.19229 3.65692 0.365173C4.8136 -0.0877323 6.03996 -0.0210378 7.17206 0.473735C8.1342 0.891059 9.04721 1.59666 9.73101 2.39105C9.8126 2.48585 9.93682 2.62569 10.0068 2.72331Z" fill="#2D2D2D"/>
<path d="M14.5268 1.35171C15.0076 1.30291 15.682 1.44872 16.1127 1.67262C17.0939 2.18291 17.7899 3.02382 18.2308 4.02206C18.3597 4.30701 18.4648 4.60204 18.5454 4.90418C18.6277 5.21979 18.6732 5.50514 18.7162 5.82569C18.4494 6.00119 18.1922 6.19596 17.9263 6.37281C17.6599 6.55004 17.3745 6.67688 17.0471 6.64706C16.5492 6.60172 16.1591 6.22113 15.7656 5.95143C15.2422 5.59254 14.6508 5.11682 14.0253 4.9908C13.1623 4.81691 12.4847 5.18807 11.8087 5.663C11.4911 5.88753 11.1651 6.11068 10.8459 6.33158C10.425 6.62279 9.99696 6.77053 9.51101 6.52799C9.24172 6.3977 9.01173 6.21178 8.76638 6.04301C8.17767 5.63807 7.63022 5.16251 6.91125 5.01943C6.04033 4.84613 5.46383 5.12853 4.76758 5.59701C4.51894 5.76475 4.2831 5.94631 4.04189 6.12381C3.86137 6.25666 3.65846 6.41638 3.45736 6.51308C3.32325 6.57882 3.17832 6.61965 3.02961 6.63358C2.88639 6.64776 2.74178 6.63352 2.60407 6.59167C2.27867 6.49341 1.56206 6.03906 1.29565 5.81617C1.39919 4.6885 1.78312 3.59552 2.53084 2.73916C3.47405 1.6589 4.84389 1.08879 6.25768 1.50016C7.36179 1.82142 8.21547 2.54547 8.93697 3.4185C9.05072 3.55589 9.15773 3.69872 9.25765 3.84647C9.35961 3.99665 9.46033 4.18694 9.59121 4.30957C9.75665 4.46458 10.2444 4.46884 10.4056 4.3111C10.5599 4.16002 10.7085 3.91023 10.8384 3.72892C10.9699 3.54814 11.1085 3.37266 11.2539 3.20292C12.1058 2.21531 13.1932 1.44968 14.5268 1.35171Z" fill="white"/>
<path d="M13.4054 11.8198C13.9311 11.7197 14.544 12.2128 14.9536 12.4974C15.1737 12.6496 15.3979 12.7961 15.6257 12.9367C15.767 13.0251 15.9169 13.1267 16.07 13.1902C14.76 14.8043 13.2534 16.2485 11.5854 17.4891C11.2437 17.7414 10.8984 17.9887 10.5495 18.2309C10.3713 18.3521 10.1842 18.4683 10.0033 18.5898C9.04873 17.9962 7.99856 17.1942 7.13767 16.4696C6.36761 15.8344 5.57127 15.0433 4.89234 14.3147C4.63985 14.0437 4.20248 13.5522 4.00366 13.2509C4.4837 12.8751 4.98289 12.5245 5.49925 12.2004C5.66319 12.0989 5.85622 11.9665 6.03658 11.9098C6.54719 11.7491 6.97311 11.8953 7.40548 12.168C7.76392 12.3885 8.11518 12.6374 8.45904 12.8804C9.037 13.2887 9.5122 13.5929 10.2556 13.5024C10.4663 13.4769 10.6717 13.4181 10.8641 13.3282C11.4194 13.072 11.9616 12.5593 12.4868 12.2328C12.8147 12.0289 13.0038 11.8737 13.4054 11.8198Z" fill="white"/>
<path d="M13.5692 5.91249C13.7303 5.90517 13.9733 5.94446 14.1164 6.01467C15.0689 6.4821 15.7776 7.4079 16.8721 7.57858C17.5686 7.68719 18.1912 7.38008 18.7417 6.97461C18.7182 7.52007 18.5376 8.54914 18.3321 9.05633C18.1793 9.1788 17.6429 9.48521 17.4602 9.5509C17.3667 9.58531 17.2685 9.60511 17.169 9.6096C16.6733 9.6292 16.2786 9.28743 15.8942 9.02554C15.2401 8.58003 14.5651 7.99723 13.7443 7.93316C13.4335 7.91084 13.1214 7.95108 12.8264 8.05149C12.2974 8.23387 11.6691 8.71355 11.2105 9.03584C10.9379 9.22735 10.7402 9.41372 10.4091 9.53578C10.2289 9.60129 10.0356 9.62181 9.84571 9.59557C9.55562 9.55546 9.33617 9.39248 9.0984 9.23756C8.22657 8.66953 7.53739 7.94345 6.43623 7.91594C5.58096 7.9209 5.08875 8.30288 4.44836 8.78529C4.24096 8.94443 4.02742 9.09542 3.80825 9.23791C2.85567 9.8627 2.56561 9.61285 1.66006 9.06285C1.47715 8.52626 1.3664 7.94632 1.30854 7.38258C1.29471 7.24773 1.28712 7.11249 1.271 6.97766C1.67971 7.21809 2.0661 7.47523 2.53709 7.56672C3.35571 7.72574 3.8658 7.41049 4.48399 6.96544C4.90973 6.65895 5.6118 6.09861 6.08532 5.96351C6.27575 5.90952 6.4759 5.89908 6.67091 5.93297C7.04191 5.99406 7.34054 6.18533 7.64166 6.39737C8.47657 6.9853 9.22484 7.7456 10.3403 7.58082C11.4945 7.41034 12.4616 5.9768 13.5692 5.91249Z" fill="white"/>
<path d="M6.33647 8.86147C7.5751 8.77392 8.53438 10.5899 10.0244 10.5728C10.2765 10.5705 10.526 10.5221 10.7607 10.43C11.2193 10.2481 11.9544 9.67309 12.3515 9.3848C13.3724 8.64352 13.9959 8.77817 14.9554 9.52086C15.2782 9.77071 15.7724 10.1152 16.1451 10.3219C16.6437 10.5982 17.2174 10.6409 17.7657 10.4668C17.6237 10.7132 17.5093 10.9922 17.3635 11.2376C17.1291 11.6322 16.8833 12.0421 16.6147 12.414C16.3094 12.258 15.9699 12.0443 15.6858 11.851C14.9798 11.3706 14.4948 10.9091 13.5976 10.8704C13.1499 10.8691 12.7674 10.9586 12.3761 11.1818C11.8985 11.4541 11.4655 11.7976 11.0145 12.1103C10.6599 12.3561 10.34 12.6243 9.87774 12.5574C9.43018 12.496 9.08109 12.145 8.71915 11.9003C8.15096 11.516 7.53079 11.0378 6.83947 10.9217C6.50627 10.8656 6.04351 10.9006 5.72784 11.0062C5.30132 11.1488 4.90031 11.4358 4.53041 11.6891C4.15031 11.9477 3.79507 12.22 3.4278 12.4936C2.97216 11.8361 2.55894 11.1804 2.22998 10.4499C3.25855 10.8355 3.93838 10.2939 4.73979 9.74394C5.21048 9.42099 5.75238 8.90994 6.33647 8.86147Z" fill="white"/>
</g>
<defs>
<clipPath id="clip0_3161_306">
<rect width="20" height="20" fill="white"/>
</clipPath>
</defs>
</svg>
