<svg width="50" height="50" viewBox="0 0 50 50" fill="none" xmlns="http://www.w3.org/2000/svg">
<path d="M15.8852 19.3989C16.5327 16.63 18.3866 13.5917 20.2117 11.4372C21.3278 10.1197 22.7488 8.87179 24.116 7.81501C24.2934 7.6779 24.7866 7.22582 25.0344 7.2707C25.4614 7.43515 25.856 7.83732 26.23 8.10722C28.7976 10.1194 30.8567 12.4799 32.4573 15.3189C33.1746 16.5994 33.739 17.9594 34.1396 19.3713C35.01 18.9721 35.7988 18.5852 36.7058 18.2459C40.0042 16.9901 43.5918 16.6999 47.0491 17.4093C47.6958 17.5378 49.4902 17.8854 50 18.1908V18.2781C49.9285 18.3846 49.8933 19.4065 49.8889 19.6308C49.8652 20.8792 49.6587 22.0192 49.4319 23.2423C48.124 30.0371 43.7217 35.8332 37.5271 38.9163C34.4604 40.4455 31.1152 41.27 27.6809 41.081C26.8086 41.033 25.9336 40.8826 25.0615 40.8352C24.1405 40.8279 22.9499 41.0674 21.9581 41.0893C19.2164 41.1501 16.5133 40.5864 13.9796 39.5505C13.2337 39.2456 12.6646 39.0212 11.9487 38.6343C6.74155 35.8381 2.84885 31.0991 1.11707 25.448C0.653291 23.8853 0.308367 22.315 0.130026 20.6914C0.107115 20.4828 0.0745986 19.8866 0 19.7409V18.0987C4.68064 16.3877 10.3822 16.8631 14.8934 18.9166C15.2285 19.0691 15.5551 19.2363 15.8852 19.3989ZM18.2797 20.7094C20.2154 22.0592 21.8866 23.7534 23.2098 25.7073C23.7598 26.541 24.2572 27.4082 24.6992 28.3039C24.7512 28.4092 24.9409 28.8552 25.0103 28.8789L25.0237 28.8559C25.188 28.5725 25.325 28.2346 25.4763 27.9424C26.731 25.5212 28.366 23.3384 30.4788 21.602C30.8684 21.2818 31.2908 21.0042 31.6887 20.689C30.7966 17.3867 29 14.4637 26.5566 12.0811C26.2114 11.7444 25.3579 10.8595 24.9573 10.664C24.8562 10.7732 24.7515 10.8579 24.6384 10.9532C24.0713 11.4319 23.5447 11.9372 23.0347 12.4757C21.2991 14.2865 19.9191 16.4074 18.9667 18.7279C18.7998 19.1379 18.6559 19.5696 18.5129 19.9889C18.4357 20.2153 18.3692 20.4954 18.2797 20.7094ZM34.6765 22.1608C34.7002 22.8915 34.8096 23.6023 34.8184 24.3708C34.8521 26.5735 34.4573 28.762 33.6562 30.8142C33.5 31.2161 33.2998 31.7124 33.0994 32.0935C34.551 31.626 35.7336 31.2256 37.27 31.0886C39.3706 30.8926 40.6003 30.9622 42.6497 31.4663C42.8044 31.2346 42.9751 31.0222 43.1416 30.7998C43.5447 30.2617 43.938 29.6848 44.2886 29.1121C45.6248 26.8921 46.5381 24.4441 46.9832 21.8916C47.0933 21.2717 47.1785 20.7619 47.219 20.1359C46.7747 20.0734 46.3271 19.9902 45.8845 19.9357C44.7725 19.8004 43.6511 19.7585 42.5322 19.8104C40.6592 19.8849 38.448 20.4242 36.7197 21.1545C36.0615 21.4327 35.3196 21.8279 34.6765 22.1608ZM2.83206 20.2346C2.85029 20.9399 3.00996 21.812 3.15457 22.502C3.74023 25.2969 4.89431 28.0723 6.56592 30.3935C6.7738 30.6824 7.14878 31.2146 7.39026 31.458C7.90879 31.3704 8.43162 31.2268 8.95408 31.157C10.5049 30.9495 12.5365 30.9448 14.0686 31.2864C14.8882 31.4451 15.9851 31.7353 16.7878 32.0017C15.7759 29.5481 15.1626 27.2056 15.1704 24.5207C15.1729 23.6304 15.258 23.0344 15.3407 22.1811C13.0648 20.9726 10.6873 20.1482 8.11931 19.8769C7.44099 19.8052 6.58535 19.7438 5.90452 19.7876C4.74368 19.8351 3.96106 19.9184 2.83206 20.2346ZM10.2909 33.6772C10.0233 33.6951 9.82429 33.7053 9.55574 33.6934C12.2978 36.2595 17.1854 38.2744 20.9351 38.3308C21.1619 38.3367 21.3885 38.3481 21.6147 38.3655C18.9658 35.6208 15.2741 33.728 11.4128 33.6628C11.0388 33.6565 10.6646 33.6614 10.2909 33.6772ZM30.4207 38.262C32.8879 37.9297 35.2659 37.1162 37.4197 35.8677C38.5056 35.2273 39.4626 34.5217 40.4507 33.7476C39.5896 33.7158 39.084 33.6567 38.1904 33.7019C37.2993 33.7927 36.3909 33.8923 35.5271 34.1172C33.0532 34.7612 30.7188 36.0256 28.886 37.8157C28.6992 37.998 28.5151 38.1899 28.3328 38.3774C29.0029 38.3994 29.751 38.3357 30.4207 38.262ZM32.0137 23.8944C31.5515 24.3254 30.9583 24.8718 30.541 25.3401C28.0881 28.0923 26.5781 31.4316 26.4529 35.1394C26.447 35.3127 26.4365 36.2402 26.5115 36.3481L26.5315 36.3533C26.9143 35.9687 27.3315 35.6233 27.7022 35.2273C28.5264 34.3467 29.3831 33.3157 29.9915 32.27C31.3232 29.981 32.0867 27.3669 32.1179 24.7148C32.1201 24.5478 32.1155 24.021 32.0527 23.908L32.0137 23.8944ZM17.9129 23.9148C17.8988 24.3574 17.8623 24.79 17.8893 25.2346C18.1161 28.9746 19.6372 32.4358 22.1959 35.1628C22.5817 35.5742 23.1439 36.1482 23.5969 36.4595C23.6766 35.6997 23.6207 34.864 23.5244 34.1106C23.1577 31.2461 22.0133 28.5369 20.2153 26.2768C19.6381 25.5649 19.0457 24.9282 18.3672 24.3118C18.2753 24.2284 18.0076 23.9674 17.9129 23.9148Z" fill="#40505F"/>
</svg>
