<svg width="20" height="20" viewBox="0 0 20 20" fill="none" xmlns="http://www.w3.org/2000/svg">
<g clip-path="url(#clip0_3161_371)">
<path d="M7.91145 0H9.14704C9.21352 0.0337051 9.54579 0.0538986 9.64344 0.0673185C9.78535 0.0880565 9.92676 0.111828 10.0677 0.138617C12.8781 0.675183 15.2889 2.63618 16.3845 5.27983C16.8693 6.42791 17.0856 7.67159 17.0167 8.91596C17.0058 9.10096 16.994 9.37662 16.9574 9.55159C17.0687 9.55637 17.23 9.58276 17.3415 9.60324C18.0337 9.72609 18.6655 10.0754 19.1377 10.5963C19.5207 11.0119 19.7897 11.5194 19.9186 12.0697C19.9396 12.1567 19.9742 12.4462 20 12.4936V13.0553L19.9969 13.067C19.9471 13.2612 19.9436 13.497 19.8698 13.6808C19.6997 14.105 19.4981 14.5295 19.408 14.982C19.3191 15.4282 19.3045 15.9021 19.24 16.3537C19.0809 17.4557 18.792 19.1709 17.7595 19.8036C17.6845 19.8495 17.6104 19.8837 17.5287 19.9114C17.4645 19.9333 17.2773 19.9738 17.2354 20H16.897C16.8366 19.9638 16.7 19.9434 16.6278 19.9148C15.4811 19.4608 15.3463 17.9707 15.2538 16.9132C15.2363 16.7138 15.2596 16.3302 15.2081 16.1671L15.2033 16.1521C15.1135 16.0743 14.9975 16.0209 14.8793 16.0638C14.7443 16.1127 14.7628 16.3482 14.7574 16.4659C14.7516 16.5971 14.7439 16.7281 14.7347 16.859C14.6606 17.9445 14.4942 19.4823 13.3015 19.9282C13.2376 19.9521 13.1644 19.9661 13.1023 19.9928L13.086 20H12.6688C12.6155 19.9685 12.5096 19.9509 12.4451 19.9279C12.1339 19.817 11.8609 19.6065 11.6779 19.3349C11.2677 18.7261 11.0345 18.0079 10.8775 17.2963C10.84 17.1262 10.7901 16.936 10.7832 16.764C10.6321 16.783 10.4886 16.8384 10.3415 16.8687C10.122 16.914 9.88272 16.954 9.66023 16.9826C8.08889 17.1905 6.49058 16.9661 5.03725 16.3335C2.75798 15.3224 1.03546 13.3643 0.323156 10.9747C0.215794 10.6174 0.155936 10.2699 0.0886302 9.90488C0.063566 9.76895 0.0444559 9.34059 0 9.24753V7.8142C0.0397477 7.6977 0.0351959 7.47914 0.0521588 7.34919C0.147899 6.61575 0.353237 5.87168 0.646854 5.19394C1.66271 2.84224 3.66827 1.06145 6.12365 0.330965C6.42509 0.240248 6.85432 0.148756 7.17002 0.0982285C7.27819 0.081127 7.38661 0.0655719 7.49523 0.0515684C7.58195 0.0412209 7.85188 0.0281279 7.91145 0ZM10.6383 15.4616C10.621 15.036 10.4439 14.576 10.2866 14.1851C10.2274 14.038 10.1606 13.8903 10.1118 13.7396C9.76034 12.6558 10.0806 11.3967 10.8414 10.5655C11.3832 9.97373 12.1934 9.57405 12.9995 9.54112C13.2812 9.52962 13.5726 9.54868 13.8479 9.60783C14.4405 9.73509 14.7245 10.008 15.3811 9.84463C15.4611 9.82471 15.5903 9.79814 15.6496 9.73674C15.7636 9.61856 15.8099 8.78092 15.8125 8.5908C15.8148 8.4272 15.8053 8.26241 15.7933 8.09932C15.6521 6.13904 14.7386 4.31498 13.2533 3.02788C12.1683 2.0944 10.8274 1.50888 9.40526 1.34739C9.04679 1.30328 8.61431 1.27483 8.25315 1.29324C7.66062 1.33183 7.15444 1.40149 6.57927 1.56173C5.30245 1.91742 4.00006 2.712 3.12354 3.70983C1.80651 5.18674 1.14708 7.13594 1.2969 9.10909C1.44878 10.9996 2.33595 12.7552 3.7679 13.9988C5.25367 15.2798 7.18994 15.9136 9.1456 15.7591C9.3533 15.7438 9.55182 15.7111 9.75687 15.6762C10.0417 15.6251 10.3605 15.5395 10.6383 15.4616ZM16.3415 15.7587C16.3767 15.8584 16.4018 15.9566 16.4166 16.0614C16.4918 16.5895 16.4772 18.4638 17.0025 18.7078C17.0566 18.7329 17.1156 18.7301 17.1703 18.708C17.3734 18.6261 17.5095 18.3174 17.5832 18.1292C17.8467 17.4566 17.9928 16.6854 18.0827 15.9698C18.1451 15.4732 18.1873 14.9803 18.2941 14.4899C18.348 14.2375 18.4175 13.9888 18.5022 13.7449C18.5972 13.4697 18.7146 13.2598 18.7415 12.9587C18.7723 12.6129 18.7386 12.2568 18.5975 11.9376C18.3833 11.451 17.9858 11.0685 17.4913 10.8731C17.0422 10.7004 16.4786 10.7089 16.0392 10.9089C15.9434 10.9524 15.8411 11.0095 15.7468 11.0405C15.1142 11.2485 14.4778 11.1844 13.889 10.8809C13.725 10.7964 13.3141 10.7361 13.1206 10.7556C12.5158 10.8188 12.0656 11.0032 11.6612 11.4854C11.2947 11.9141 11.1582 12.4604 11.209 13.0155C11.238 13.3325 11.359 13.5533 11.4782 13.8384C12.0665 15.244 11.8128 16.8248 12.4452 18.2196C12.5245 18.3936 12.6686 18.7541 12.9111 18.7127C13.1888 18.6653 13.2891 18.267 13.349 18.0313C13.4887 17.4828 13.5092 16.8974 13.5386 16.3341C13.5544 16.0308 13.6089 15.7822 13.7761 15.5232C13.9896 15.1768 14.3455 14.923 14.751 14.8487C15.1191 14.7804 15.4992 14.8629 15.806 15.0776C16.0283 15.2341 16.2547 15.5004 16.3415 15.7587Z" fill="#2D2D2D"/>
<path d="M8.44074 4.4182C8.80493 4.39577 9.09604 4.63559 9.10875 5.00946C9.11493 5.19142 9.11382 5.3719 9.11392 5.55394L9.11072 7.24654L9.10874 7.763C9.10791 8.17355 9.11419 8.21655 9.42571 8.50416C9.68182 8.74036 9.87955 8.96458 10.1305 9.21179C10.4522 9.52864 10.8392 9.82339 10.5584 10.3251C10.4671 10.4879 10.2898 10.5676 10.1114 10.6053C9.76822 10.5971 9.67612 10.4613 9.45586 10.2388L8.97438 9.75559L8.35096 9.12964C8.22104 8.99953 7.94817 8.76747 7.9243 8.59092C7.89564 8.37892 7.90075 8.1266 7.8999 7.90972L7.89868 6.80807L7.9006 5.61283C7.90119 5.41126 7.90044 5.20914 7.90702 5.00735C7.91761 4.68269 8.11817 4.46723 8.44074 4.4182Z" fill="#2D2D2D"/>
<path d="M2.28933 7.98183C2.42337 7.96764 3.17528 7.96954 3.29394 7.99345C3.37839 8.01038 3.45814 8.04552 3.52762 8.09643C3.76247 8.27087 3.81964 8.66608 3.64228 8.90341C3.53524 9.04664 3.392 9.13433 3.21331 9.16073C3.00619 9.1685 2.37957 9.18444 2.20406 9.14066C2.11701 9.1185 2.03574 9.07785 1.9658 9.02146C1.70288 8.81144 1.66976 8.44886 1.87801 8.18688C1.99271 8.04259 2.1107 8.0009 2.28933 7.98183Z" fill="#2D2D2D"/>
<path d="M8.42565 1.69232C8.56494 1.67954 8.69401 1.6946 8.81085 1.7676C9.12394 1.96844 9.10215 2.25406 9.10543 2.5734C9.11031 3.04848 9.15803 3.51939 8.57553 3.65828C8.43772 3.67392 8.29881 3.64032 8.18337 3.56343C7.86539 3.35381 7.90353 3.07958 7.90569 2.74768C7.90857 2.30335 7.84377 1.79781 8.42565 1.69232Z" fill="#2D2D2D"/>
<path d="M8.47117 13.402C8.6213 13.3946 8.75136 13.4235 8.87789 13.5055C8.9713 13.5582 9.11454 13.7623 9.11437 13.8747C9.11387 14.1904 9.19714 14.821 9.01529 15.0789C8.91874 15.2162 8.77139 15.3091 8.60596 15.3373C8.28333 15.374 7.99375 15.184 7.93962 14.851C7.91697 14.7014 7.93759 14.5468 7.9332 14.397C7.91994 13.9451 7.89379 13.4785 8.47117 13.402Z" fill="#2D2D2D"/>
<path d="M13.8313 8.02155C14.1048 8.01629 14.3832 8.02927 14.6573 8.02286C14.8485 8.01839 14.9992 8.02519 15.1551 8.14853C15.5588 8.468 15.3264 9.07997 14.8467 9.13134C14.6642 9.14034 14.4461 9.13417 14.2622 9.13593C14.1366 9.13713 13.8838 9.14176 13.7682 9.11646C13.6756 9.09686 13.5889 9.05588 13.515 8.99679C13.142 8.69441 13.3122 8.06248 13.8313 8.02155Z" fill="#2D2D2D"/>
<path d="M3.97 3.49969C4.29896 3.48978 4.41894 3.6559 4.63458 3.87122C4.80896 4.04534 5.02268 4.18332 5.07462 4.44229C5.10604 4.59685 5.07393 4.75755 4.98552 4.88817C4.88564 5.03358 4.7463 5.11304 4.57518 5.14556C4.19983 5.17763 4.01041 4.90521 3.77781 4.66032C3.64676 4.52235 3.47527 4.36795 3.452 4.17527C3.4096 3.82418 3.63578 3.55123 3.97 3.49969Z" fill="#2D2D2D"/>
<path d="M4.44043 11.9764C4.56908 11.9634 4.73475 12.0232 4.84102 12.1006C5.08683 12.2797 5.15169 12.6898 4.95794 12.928C4.8681 13.0351 4.76579 13.1336 4.66785 13.2331C4.48192 13.4222 4.3938 13.5565 4.11696 13.5903C3.59094 13.616 3.27411 13.0372 3.58931 12.6184C3.65364 12.5329 3.75587 12.4417 3.8333 12.3643C4.04108 12.1564 4.13042 12.0161 4.44043 11.9764Z" fill="#2D2D2D"/>
<path d="M12.9149 3.52903C13.3762 3.47479 13.7271 3.86095 13.5354 4.29023C13.4495 4.48286 12.9973 4.84944 12.8314 5.00883C12.7927 5.0461 12.6841 5.0849 12.6308 5.10218C12.4825 5.1251 12.3599 5.10357 12.2326 5.02356C12.1015 4.94164 12.0089 4.81036 11.9757 4.65935C11.8831 4.23892 12.2585 4.03398 12.5075 3.77932C12.6314 3.65255 12.7389 3.56603 12.9149 3.52903Z" fill="#2D2D2D"/>
</g>
<defs>
<clipPath id="clip0_3161_371">
<rect width="20" height="20" fill="white"/>
</clipPath>
</defs>
</svg>
