<svg width="50" height="50" viewBox="0 0 50 50" fill="none" xmlns="http://www.w3.org/2000/svg">
<g clip-path="url(#clip0_3161_162)">
<path d="M24.7537 0H25.2368C25.3965 0.0882175 25.5806 0.111462 25.7485 0.18378C26.05 0.313457 26.3523 0.449766 26.6458 0.596499C28.3472 1.44712 29.905 2.5585 31.2629 3.89036C31.6353 4.25667 31.9885 4.64194 32.321 5.04465C32.4866 5.24414 32.8308 5.69417 32.9993 5.85737C33.5225 5.81902 34.0571 5.73203 34.5745 5.70337C36.8662 5.56423 39.1611 5.92068 41.3025 6.74846C41.6926 6.89958 42.3013 7.10894 42.6335 7.33496C42.7969 7.44595 42.9893 7.99829 43.0732 8.20745C43.7097 9.79617 44.1714 11.7559 44.2883 13.4697C44.3711 14.6561 44.3289 15.8479 44.1624 17.0254C45.9055 18.424 47.4438 20.0002 48.6157 21.9111C48.926 22.4168 49.2202 22.9346 49.459 23.4782C49.6514 23.9162 49.8772 24.3937 49.9324 24.8723C50.0667 26.033 48.1394 28.937 47.4011 29.8518C46.8064 30.5886 46.1719 31.2441 45.4617 31.8699C45.1763 32.1211 44.3877 32.6851 44.2056 32.9309C44.1438 33.0144 44.1729 33.1606 44.1829 33.2588C44.261 34.0144 44.3521 34.7583 44.3667 35.519C44.4026 37.4119 44.0132 39.3467 43.3308 41.1082C43.1787 41.501 42.9402 42.1978 42.688 42.5137C42.4692 42.7878 41.9685 42.9285 41.647 43.0527C40.126 43.6406 38.613 44.0466 36.9851 44.2012C35.8789 44.3064 34.748 44.2578 33.6438 44.1545C33.3962 44.1313 33.1355 44.1267 32.8926 44.0776C31.2473 46.5002 28.6594 48.5708 25.9512 49.7007C25.8054 49.7615 25.2422 49.9395 25.1638 50H24.803C24.6394 49.907 24.3507 49.8376 24.1649 49.7576C21.3889 48.563 18.8283 46.6028 17.1279 44.1143C16.8185 44.1252 16.419 44.1892 16.1 44.219C15.117 44.3113 14.3106 44.3333 13.3271 44.2437C11.5772 44.0847 9.96863 43.7046 8.34644 43.031C8.14277 42.9409 7.47209 42.6965 7.37837 42.5117C5.85823 39.5161 5.42258 36.2991 5.84009 32.9839C5.64392 32.7524 5.07839 32.3303 4.80764 32.0969C4.33218 31.6807 3.87825 31.2402 3.44758 30.7776C2.33688 29.5791 1.40253 28.2285 0.672676 26.7666C0.512812 26.4473 0.375679 26.1177 0.230155 25.7922C0.17386 25.6663 0.0876726 25.4368 0.0238889 25.3257L0 25.2849V24.8823C0.0519824 24.8088 0.0911216 24.6316 0.116824 24.5405C0.25304 24.0577 0.433005 23.557 0.665649 23.1115C1.89376 20.7416 3.66472 18.6956 5.83403 17.1404C5.62922 16.0927 5.60618 14.1847 5.71687 13.1372C5.89058 11.4936 6.33289 9.6885 6.98796 8.16909C7.08779 7.93757 7.25117 7.42747 7.44124 7.30439C7.82986 7.05276 8.46025 6.85122 8.8906 6.69133C11.6871 5.65237 14.213 5.4573 17.1519 5.81606C17.2495 5.58003 17.5987 5.14907 17.7734 4.94065C18.999 3.4793 20.5628 2.10643 22.2307 1.17782C22.7877 0.865754 23.3592 0.580173 23.9432 0.322029C24.1287 0.240562 24.5859 0.0880608 24.7102 0.0231869L24.7537 0ZM25.573 34.1135C30.6084 33.7979 34.4363 29.4629 34.126 24.4272C33.8157 19.3915 29.4846 15.559 24.4487 15.8639C19.4051 16.1693 15.5656 20.5082 15.8763 25.5515C16.187 30.5947 20.53 34.4294 25.573 34.1135ZM2.65552 24.9846C3.13081 26.3579 4.82036 28.5596 5.8573 29.5554C6.07974 29.7551 6.35371 30.0127 6.58315 30.1936C6.91516 28.7612 8.15334 26.1702 9.03159 24.9941L9.01714 24.9675C8.84773 24.6631 8.60247 24.3299 8.41694 24.022C7.97646 23.3008 7.58025 22.5535 7.23052 21.7842C7.10647 21.5147 6.59778 20.0777 6.51716 19.9771L6.45576 19.9659C6.12017 20.2252 5.75681 20.5911 5.45173 20.8909C4.30964 22.013 3.2874 23.5053 2.65552 24.9846ZM9.35679 9.30459C9.14263 9.68855 9.01216 10.1824 8.88257 10.6027C8.38503 12.2161 8.17742 13.9234 8.27705 15.6131C8.58206 15.4889 9.00867 15.2658 9.31238 15.1142C10.7791 14.4384 12.1858 14.0716 13.752 13.7591C14.024 12.3677 14.4329 11.0066 14.9729 9.69561C15.1563 9.24792 15.4635 8.67368 15.6136 8.26594C15.079 8.2468 14.5439 8.24648 14.0094 8.26494C12.6962 8.32092 11.3972 8.55925 10.1497 8.97307C9.91978 9.05012 9.55071 9.17708 9.35679 9.30459ZM15.4984 41.6643L15.5565 41.6567C15.5798 41.6016 15.5724 41.574 15.5438 41.5081C15.2574 40.8464 14.9544 40.1589 14.7081 39.4817C14.3105 38.3879 14.0249 37.335 13.7614 36.2078C12.1765 35.9299 10.6316 35.4595 9.16079 34.8069C8.91558 34.6987 8.53044 34.5403 8.30403 34.4143C8.24448 34.6052 8.25066 35.1199 8.25325 35.3342C8.25981 36.824 8.50757 38.3027 8.98687 39.7134C9.38967 40.9009 9.35295 40.7339 10.5537 41.0867C11.7543 41.4495 12.9982 41.6492 14.252 41.6804C14.6531 41.6919 15.1582 41.6499 15.4984 41.6643ZM36.2437 13.7478C37.687 13.9947 39.2163 14.485 40.5747 15.0399C40.7883 15.1272 41.522 15.5181 41.6924 15.5389C41.7695 13.4701 41.5574 11.583 40.8335 9.62727C40.636 9.09377 40.5293 9.19228 40.0122 9.0238C38.333 8.45442 36.5825 8.19751 34.8108 8.27656C34.6768 8.28254 34.5259 8.28333 34.3909 8.27783C34.4446 8.44158 34.5193 8.60344 34.5942 8.75869C34.8479 9.28433 35.0664 9.80571 35.2712 10.3517C35.5588 11.1074 35.8044 11.8786 36.0066 12.6616C36.0962 13.0193 36.155 13.407 36.2437 13.7478ZM41.0181 25.0088C41.967 26.4863 42.7234 28.0593 43.3232 29.7107C43.3579 29.8059 43.4185 30.0437 43.4978 30.0742C43.698 29.9624 44.0879 29.5586 44.2705 29.3782C45.554 28.1267 46.5901 26.6445 47.3247 25.0095C47.1099 24.6016 46.8831 24.1024 46.6509 23.7134C45.9373 22.5186 45.0125 21.3689 44.0444 20.3682C43.9353 20.2554 43.5498 19.8514 43.4324 19.8043C43.1868 21.2215 41.7847 23.7855 41.0181 25.0088ZM19.9074 6.50471C20.2302 6.59487 20.5365 6.73626 20.8497 6.85386C22.1904 7.35715 23.4544 8.04883 24.6375 8.85295C24.7412 8.92349 24.9744 9.1136 25.0923 9.03438C26.4707 8.06338 28.5076 6.97969 30.1384 6.52629C28.854 5.1551 27.5388 4.03596 25.8564 3.18076C25.6428 3.07217 25.1753 2.83455 24.9414 2.83252C22.8889 3.66484 21.3557 4.84893 19.9074 6.50471ZM36.2046 36.2625C35.8384 37.8396 35.4417 39.2947 34.7581 40.7683C34.6943 40.906 34.3665 41.5325 34.4224 41.6301L34.4844 41.634C36.1614 41.7219 37.8413 41.5312 39.4561 41.0698C39.7485 40.989 40.4146 40.7871 40.6821 40.6511C41.3772 39.0632 41.5991 36.9304 41.6707 35.2141C41.6758 35.0942 41.6804 34.5012 41.627 34.4329L41.5977 34.425C41.0747 34.6631 40.5171 34.9453 39.9944 35.1655C38.7776 35.6763 37.5061 36.0444 36.2046 36.2625ZM19.9149 43.4407C21.0597 44.8987 22.5303 46.0681 24.2086 46.8552C24.4046 46.9465 24.863 47.1907 25.0566 47.165C27.0168 46.3601 28.7498 45.0869 30.1038 43.457C29.6929 43.2878 29.2827 43.1638 28.8745 43.0027C28.0686 42.6755 27.2751 42.3181 26.4961 41.9314C26.2444 41.8037 25.1182 41.1082 24.9517 41.1074C24.0301 41.7822 20.9879 43.1716 19.9149 43.4407ZM16.4474 13.4146C17.1627 13.3819 17.8594 13.3574 18.5766 13.3633C19.0825 13.3674 19.6346 13.4224 20.1292 13.4058C20.1897 13.3406 20.4194 13.1037 20.4613 13.047C21.0185 12.4488 21.6013 11.875 22.2081 11.3271C22.4005 11.1551 22.6484 10.9235 22.8519 10.7741C21.5884 9.87222 19.8889 9.12 18.3821 8.72805C17.518 9.99937 16.8316 11.9373 16.4474 13.4146ZM8.73887 18.3331C8.94778 18.8826 9.11895 19.4528 9.32532 20.0062C9.54099 20.5845 9.78738 21.1114 10.0597 21.6649C10.1663 21.8619 10.6091 22.7355 10.7554 22.8056C10.903 22.7337 11.8537 21.6746 12.0285 21.4979C12.4282 21.0939 13.0371 20.6084 13.3845 20.1892C13.3022 18.9974 13.2912 17.9327 13.4048 16.7352C13.4133 16.6458 13.4412 16.569 13.3795 16.5112L13.3559 16.5104C11.865 16.8534 10.0359 17.5182 8.73887 18.3331ZM25.6526 37.2366C25.8064 37.1082 26.1609 36.8357 26.2861 36.7073C25.4138 36.7959 24.6746 36.7917 23.7935 36.7205C23.8438 36.8904 24.8284 37.646 25.0139 37.7898C25.2263 37.5938 25.4309 37.4216 25.6526 37.2366ZM12.2539 25.0342C12.4506 25.2527 12.6704 25.5366 12.8591 25.7356C13.0191 25.9001 13.2217 26.1208 13.3899 26.2695C13.2555 25.7837 13.2752 24.4309 13.3533 23.9124C13.3231 23.8678 13.3422 23.8806 13.3026 23.8657C12.9851 24.2186 12.5218 24.668 12.2539 25.0342ZM15.9713 16.0105C15.889 16.5416 15.8518 17.1876 15.8117 17.7317C15.9136 17.6143 15.9922 17.5198 16.0857 17.3955C16.5683 16.8335 16.9616 16.4179 17.515 15.918C17.3106 15.9132 17.1591 15.9162 16.955 15.9285C16.6629 15.9549 16.2554 16.0033 15.9713 16.0105ZM36.6389 16.435C36.5811 16.6313 36.6714 17.4948 36.6792 17.7457C36.6936 18.2747 36.6897 18.804 36.6675 19.3327C36.6562 19.5809 36.6191 19.9059 36.6184 20.1412C36.8972 20.4483 37.2998 20.7938 37.6072 21.0903C38.1843 21.6577 38.7581 22.2285 39.3284 22.8026C39.519 22.4416 39.7795 21.9888 39.9363 21.6241C40.3484 20.7869 41.0173 19.1287 41.1851 18.1976C40.999 18.1472 40.8406 18.0578 40.6687 17.9735C40.123 17.7058 39.5679 17.4335 39.0024 17.21C38.5178 17.0188 38.0251 16.8482 37.5259 16.6987C37.2993 16.6304 36.8379 16.5147 36.6389 16.435ZM31.1465 40.9951L31.6501 41.1399C32.5586 39.4497 33.0171 38.4824 33.4873 36.5981C32.5635 36.6624 31.6482 36.6772 30.7239 36.6272C30.439 36.6118 30.1121 36.6157 29.8342 36.5918C29.593 36.7766 29.4539 37.0278 29.2544 37.2244C28.615 37.8557 27.8928 38.7493 27.2156 39.3142C28.4502 40.0371 29.771 40.6018 31.1465 40.9951ZM36.7271 26.1064C36.9097 25.9207 37.0872 25.741 37.262 25.5476C37.3669 25.4302 37.7104 25.0996 37.7205 24.9697C37.6248 24.7903 36.8655 23.907 36.72 23.8437C36.7385 24.636 36.7302 25.3218 36.7271 26.1064ZM32.5979 15.868C32.656 15.9844 33.271 16.5938 33.4038 16.7372C33.6272 16.9833 33.8455 17.234 34.0588 17.489L34.1216 17.4985C34.0979 16.9979 34.0249 16.4493 34.0083 15.9793C33.6074 15.9414 32.9922 15.8753 32.5979 15.868ZM33.5369 13.3833C33.4292 13.0012 33.334 12.6142 33.2058 12.2383C33.0371 11.744 31.9895 9.00901 31.6255 8.79346C31.6008 8.77893 31.5833 8.77551 31.5571 8.76829C30.3372 9.12395 29.2832 9.52537 28.1819 10.1621C27.8464 10.356 27.5371 10.5122 27.2197 10.744C28.0632 11.5286 28.8828 12.2705 29.6191 13.1633C29.6914 13.2492 29.7737 13.3547 29.856 13.4281C30.272 13.4173 30.6699 13.3562 31.0696 13.3411C31.8728 13.3107 32.7371 13.3042 33.5369 13.3833ZM23.908 13.2243L25.0376 13.195C25.3821 13.1916 25.7268 13.1953 26.0713 13.2061C25.9053 13.0653 25.0959 12.3202 24.9941 12.293C24.6521 12.6331 24.244 12.9061 23.908 13.2243ZM17.3567 34.0288C17.2889 33.8584 16.0847 32.6292 15.9318 32.5813C16.0277 33.0063 16.0033 33.5032 16.064 33.9304C16.2967 33.9587 17.1406 34.0491 17.3567 34.0288ZM34.0789 32.4866C33.7556 32.8979 33.2539 33.3672 32.8547 33.7202C32.7686 33.7964 32.5271 33.9658 32.5083 34.0461C32.5518 34.0703 32.5334 34.0693 32.5586 34.0686C33.0508 34.0405 33.5432 34.0188 34.0361 34.0029C34.0498 33.7847 34.1382 32.6299 34.1033 32.5103L34.0789 32.4866ZM41.2695 31.6411C40.9578 30.3567 40.3132 29.0049 39.6653 27.8608C39.5825 27.7144 39.3586 27.281 39.2507 27.1943L39.2112 27.1853C38.4277 28.0957 37.5225 28.843 36.7012 29.7051C36.668 29.74 36.7058 30.9146 36.7065 31.0713C36.7058 31.8704 36.6731 32.6692 36.6086 33.4658C37.2722 33.3501 37.6392 33.2297 38.2754 33.0203C39.1399 32.7192 40.5073 32.147 41.2695 31.6411ZM10.703 27.1799C10.5137 27.5332 10.2874 27.8916 10.1133 28.2473C9.57156 29.3542 9.12373 30.4587 8.85742 31.6646C9.50828 32.1194 11.1432 32.7915 11.9202 33.0144C12.4901 33.1931 12.8574 33.261 13.4198 33.4009C13.3738 33.1501 13.3646 32.8003 13.3505 32.5391C13.317 31.9529 13.3008 31.3655 13.3019 30.7781C13.3026 30.4429 13.3231 30.0933 13.3144 29.7617C12.6162 29.2119 11.953 28.4519 11.3105 27.8303C11.1898 27.7136 10.7865 27.2229 10.703 27.1799ZM16.5293 36.5605C16.6854 37.1467 16.8604 37.7275 17.0539 38.3025C17.2065 38.7468 18.0537 40.9138 18.3641 41.0938C18.4886 41.1658 18.7219 41.0757 18.8499 41.0371C19.8071 40.7485 20.7482 40.3586 21.6476 39.9241L22.8204 39.3264C22.195 38.7383 21.5879 38.1311 20.9998 37.5056C20.7805 37.2734 20.4001 36.8074 20.1967 36.6182C19.4058 36.5959 18.6096 36.7029 17.8118 36.6331C17.389 36.5962 16.9557 36.6125 16.5293 36.5605Z" fill="#40505F"/>
<path d="M24.8597 18.9191C28.2076 18.8396 30.9886 21.484 31.0777 24.8318C31.1665 28.1795 28.5301 30.9678 25.1827 31.0664C21.8218 31.1655 19.0196 28.5159 18.9302 25.1548C18.8408 21.7936 21.4982 18.9989 24.8597 18.9191ZM25.2557 28.4373C27.1617 28.2991 28.5957 26.6433 28.46 24.7371C28.3245 22.8307 26.6705 21.3945 24.764 21.5276C22.8539 21.661 21.4144 23.3188 21.5503 25.2285C21.6862 27.1384 23.3459 28.5757 25.2557 28.4373Z" fill="#40505F"/>
</g>
<defs>
<clipPath id="clip0_3161_162">
<rect width="50" height="50" fill="white"/>
</clipPath>
</defs>
</svg>
