<svg width="111" height="35" viewBox="0 0 111 35" fill="none" xmlns="http://www.w3.org/2000/svg">
<path d="M27.08 23.788C26.4387 24.6893 26.0487 25.4087 25.91 25.946C25.7887 26.4833 25.8927 26.8733 26.222 27.116C26.5513 27.3413 27.0713 27.4627 27.782 27.48L27.652 28C27.1667 27.9653 26.664 27.948 26.144 27.948C25.624 27.9307 25.1387 27.922 24.688 27.922C24.2547 27.922 23.8907 27.9307 23.596 27.948C23.3013 27.948 23.0153 27.9653 22.738 28L22.868 27.48C23.1107 27.428 23.362 27.324 23.622 27.168C23.882 26.9947 24.168 26.752 24.48 26.44C24.792 26.128 25.1213 25.7207 25.468 25.218L36.674 9.462C36.7433 9.462 36.804 9.462 36.856 9.462C36.9253 9.462 36.9947 9.462 37.064 9.462L38.104 25.816C38.156 26.44 38.312 26.8733 38.572 27.116C38.8493 27.3413 39.118 27.4627 39.378 27.48L39.274 28C38.9273 27.9653 38.494 27.948 37.974 27.948C37.454 27.9307 36.9427 27.922 36.44 27.922C35.816 27.922 35.2267 27.9307 34.672 27.948C34.1173 27.948 33.6667 27.9653 33.32 28L33.424 27.48C34.256 27.4453 34.8453 27.298 35.192 27.038C35.5387 26.7607 35.6947 26.18 35.66 25.296L34.958 12.452L35.14 12.4L27.08 23.788ZM29.16 20.512H36.752L36.544 21.032H28.692L29.16 20.512ZM44.0036 25.79C43.8649 26.2927 43.8216 26.6913 43.8736 26.986C43.9256 27.2633 44.1162 27.402 44.4456 27.402C44.7922 27.402 45.1129 27.2113 45.4076 26.83C45.7196 26.4313 46.0489 25.738 46.3956 24.75L46.7336 23.788H47.2276L46.5776 25.686C46.3522 26.3447 46.0749 26.8733 45.7456 27.272C45.4336 27.6533 45.0869 27.9307 44.7056 28.104C44.3242 28.2773 43.9082 28.364 43.4576 28.364C42.8856 28.364 42.4609 28.2513 42.1836 28.026C41.9236 27.818 41.7589 27.532 41.6896 27.168C41.6376 26.804 41.6462 26.414 41.7156 25.998C41.8022 25.5647 41.9062 25.14 42.0276 24.724L46.2656 10.658C46.4389 10.0687 46.4216 9.63533 46.2136 9.358C46.0056 9.08067 45.4769 8.942 44.6276 8.942L44.8096 8.396C45.7629 8.37867 46.6036 8.28333 47.3316 8.11C48.0596 7.91933 48.7616 7.65933 49.4376 7.33L44.0036 25.79ZM60.8865 18.146C60.4012 17.9033 59.9505 17.548 59.5345 17.08C59.1185 16.612 58.9365 16.0313 58.9885 15.338C59.0232 14.9393 59.1618 14.662 59.4045 14.506C59.6645 14.3327 59.9072 14.246 60.1325 14.246C60.7392 14.246 61.1552 14.5927 61.3805 15.286C61.6058 15.962 61.6578 16.8373 61.5365 17.912C61.4152 18.9347 61.2072 19.9487 60.9125 20.954C60.6178 21.9593 60.2365 22.904 59.7685 23.788C59.3178 24.672 58.7718 25.4607 58.1305 26.154C57.4892 26.8473 56.7698 27.3933 55.9725 27.792C55.1752 28.1733 54.2912 28.364 53.3205 28.364C52.5405 28.364 51.9252 28.208 51.4745 27.896C51.0412 27.5667 50.7378 27.1593 50.5645 26.674C50.3912 26.1713 50.3218 25.66 50.3565 25.14C50.4258 24.1693 50.7205 23.1293 51.2405 22.02C51.7778 20.8933 52.4798 19.758 53.3465 18.614C54.2305 17.4527 55.2445 16.3347 56.3885 15.26C56.1112 15.364 55.8165 15.5113 55.5045 15.702C55.1925 15.8753 54.8892 16.0573 54.5945 16.248C54.2998 16.4213 54.0138 16.5773 53.7365 16.716C53.4592 16.8373 53.1992 16.898 52.9565 16.898C52.6272 16.898 52.3412 16.794 52.0985 16.586C51.8732 16.3607 51.6132 16.248 51.3185 16.248C51.0412 16.248 50.8072 16.3693 50.6165 16.612C50.4432 16.8373 50.2525 17.2533 50.0445 17.86L49.7585 18.822H49.2645L49.8365 16.924C50.1312 15.884 50.4952 15.182 50.9285 14.818C51.3792 14.454 51.8298 14.272 52.2805 14.272C52.6098 14.272 52.8872 14.3587 53.1125 14.532C53.3378 14.7053 53.5632 14.8787 53.7885 15.052C54.0312 15.208 54.3172 15.286 54.6465 15.286C55.0625 15.286 55.4525 15.2253 55.8165 15.104C56.1978 14.9653 56.5358 14.7573 56.8305 14.48L57.0905 13.986L57.6365 14.246C56.9432 15.0953 56.3192 15.9447 55.7645 16.794C55.2272 17.6433 54.7592 18.5013 54.3605 19.368C53.9792 20.2347 53.6672 21.11 53.4245 21.994C53.1992 22.878 53.0432 23.7793 52.9565 24.698C52.8872 25.7033 52.9565 26.4227 53.1645 26.856C53.3898 27.2893 53.6932 27.506 54.0745 27.506C54.8892 27.506 55.6432 27.2893 56.3365 26.856C57.0298 26.4227 57.6452 25.8507 58.1825 25.14C58.7372 24.4293 59.2052 23.658 59.5865 22.826C59.9852 21.9767 60.2885 21.1447 60.4965 20.33C60.7218 19.5153 60.8518 18.7873 60.8865 18.146ZM64.6098 22.098C65.5804 21.7687 66.4558 21.448 67.2358 21.136C68.0331 20.8067 68.6658 20.46 69.1338 20.096C69.7578 19.5933 70.2518 18.9867 70.6158 18.276C70.9798 17.5653 71.1618 16.7853 71.1618 15.936C71.1618 15.4333 71.1271 15.1127 71.0578 14.974C70.9884 14.8353 70.8844 14.766 70.7458 14.766C70.3124 14.766 69.8444 14.9567 69.3418 15.338C68.8391 15.7193 68.3451 16.248 67.8598 16.924C67.3744 17.5827 66.9238 18.3367 66.5078 19.186C66.1091 20.0353 65.7884 20.9453 65.5458 21.916C65.3031 22.8693 65.1818 23.8227 65.1818 24.776C65.1818 25.66 65.3464 26.3013 65.6758 26.7C66.0051 27.0813 66.4384 27.272 66.9758 27.272C67.5998 27.272 68.2584 27.0813 68.9518 26.7C69.6451 26.3187 70.3211 25.6427 70.9798 24.672L71.3958 24.88C71.0664 25.452 70.6331 26.0067 70.0958 26.544C69.5584 27.0813 68.9518 27.5233 68.2758 27.87C67.6171 28.1993 66.9151 28.364 66.1698 28.364C65.4764 28.364 64.8698 28.2253 64.3498 27.948C63.8298 27.6707 63.4311 27.2633 63.1538 26.726C62.8764 26.1713 62.7378 25.4953 62.7378 24.698C62.7378 23.9527 62.8764 23.1207 63.1538 22.202C63.4311 21.266 63.8211 20.3387 64.3238 19.42C64.8438 18.484 65.4591 17.626 66.1698 16.846C66.8804 16.066 67.6691 15.442 68.5358 14.974C69.4024 14.506 70.3298 14.272 71.3178 14.272C71.8551 14.272 72.3058 14.4193 72.6698 14.714C73.0511 14.9913 73.2418 15.416 73.2418 15.988C73.2418 16.6813 73.0338 17.3313 72.6178 17.938C72.2191 18.5273 71.6818 19.0733 71.0058 19.576C70.3471 20.0613 69.6278 20.4947 68.8478 20.876C68.0678 21.2573 67.3051 21.5867 66.5598 21.864C65.8144 22.1413 65.1558 22.3667 64.5838 22.54L64.6098 22.098ZM81.4763 14.792C80.9216 14.792 80.3843 15.0173 79.8643 15.468C79.3616 15.9013 78.8936 16.4993 78.4603 17.262C78.0443 18.0073 77.6716 18.848 77.3423 19.784C77.0303 20.72 76.7876 21.6907 76.6143 22.696C76.4409 23.7013 76.3543 24.6633 76.3543 25.582C76.3543 26.362 76.4756 26.934 76.7183 27.298C76.9783 27.662 77.3509 27.844 77.8363 27.844C78.3909 27.844 78.9196 27.6273 79.4223 27.194C79.9423 26.7433 80.4189 26.1453 80.8523 25.4C81.2856 24.6373 81.6583 23.788 81.9703 22.852C82.2823 21.916 82.5249 20.954 82.6983 19.966C82.8716 18.9607 82.9583 17.99 82.9583 17.054C82.9583 16.2567 82.8369 15.6847 82.5943 15.338C82.3516 14.974 81.9789 14.792 81.4763 14.792ZM74.1183 24.282C74.1183 23.5193 74.2223 22.6873 74.4303 21.786C74.6383 20.8847 74.9503 19.992 75.3663 19.108C75.7823 18.224 76.2849 17.418 76.8743 16.69C77.4809 15.962 78.1829 15.3813 78.9803 14.948C79.7776 14.4973 80.6616 14.272 81.6323 14.272C82.7069 14.272 83.5649 14.61 84.2063 15.286C84.8649 15.9447 85.1943 16.9673 85.1943 18.354C85.1943 19.1167 85.0903 19.9487 84.8823 20.85C84.6743 21.7513 84.3623 22.644 83.9463 23.528C83.5303 24.412 83.0189 25.218 82.4123 25.946C81.8229 26.674 81.1296 27.2633 80.3323 27.714C79.5349 28.1473 78.6509 28.364 77.6803 28.364C76.6056 28.364 75.7389 28.026 75.0803 27.35C74.4389 26.674 74.1183 25.6513 74.1183 24.282ZM89.4136 28H87.1516L90.2716 16.846C90.4449 16.2567 90.4969 15.8407 90.4276 15.598C90.3756 15.3553 90.2022 15.234 89.9076 15.234C89.5262 15.234 89.1796 15.4333 88.8676 15.832C88.5556 16.2307 88.2262 16.9153 87.8796 17.886L87.5416 18.848H87.0476L87.6976 16.95C87.9576 16.222 88.2609 15.6673 88.6076 15.286C88.9716 14.9047 89.3442 14.6447 89.7256 14.506C90.1242 14.35 90.4969 14.272 90.8436 14.272C91.3636 14.272 91.7276 14.3847 91.9356 14.61C92.1609 14.8353 92.2822 15.13 92.2996 15.494C92.3342 15.858 92.3082 16.2567 92.2216 16.69C92.1522 17.106 92.0656 17.5133 91.9616 17.912L89.4136 28ZM96.0956 14.922C95.6969 14.922 95.2809 15.1127 94.8476 15.494C94.4316 15.858 93.9982 16.3953 93.5476 17.106C93.1142 17.7993 92.6722 18.64 92.2216 19.628C91.7882 20.5987 91.3549 21.682 90.9216 22.878C90.5056 24.074 90.0982 25.3653 89.6996 26.752L90.3496 23.424C90.9216 21.7253 91.4502 20.2953 91.9356 19.134C92.4382 17.9727 92.9322 17.0367 93.4176 16.326C93.9029 15.598 94.3969 15.078 94.8996 14.766C95.4196 14.4367 95.9656 14.272 96.5376 14.272C97.0229 14.272 97.3956 14.4107 97.6556 14.688C97.9329 14.9653 98.0716 15.3207 98.0716 15.754C98.0716 16.1007 97.9849 16.4213 97.8116 16.716C97.6382 16.9933 97.4129 17.2187 97.1356 17.392C96.8756 17.548 96.5809 17.626 96.2516 17.626C95.9569 17.626 95.7056 17.548 95.4976 17.392C95.3069 17.2187 95.2116 16.9847 95.2116 16.69C95.2116 16.4127 95.2636 16.17 95.3676 15.962C95.4716 15.7367 95.6102 15.546 95.7836 15.39C95.9569 15.234 96.1562 15.1127 96.3816 15.026C96.3469 14.9913 96.3036 14.9653 96.2516 14.948C96.2169 14.9307 96.1649 14.922 96.0956 14.922ZM100.262 27.532C100.678 27.532 101.155 27.272 101.692 26.752C102.229 26.2147 102.775 25.4953 103.33 24.594C103.885 23.6927 104.396 22.67 104.864 21.526C105.332 20.382 105.705 19.1947 105.982 17.964L105.54 20.772C104.881 22.6093 104.223 24.0913 103.564 25.218C102.905 26.3273 102.238 27.1333 101.562 27.636C100.886 28.1213 100.201 28.364 99.5081 28.364C98.6934 28.364 98.0781 28.0693 97.6621 27.48C97.2634 26.8907 97.0641 26.1367 97.0641 25.218C97.0641 24.386 97.2027 23.4847 97.4801 22.514C97.7574 21.526 98.1387 20.5467 98.6241 19.576C99.1267 18.6053 99.6987 17.7213 100.34 16.924C100.981 16.1267 101.675 15.4853 102.42 15C103.183 14.5147 103.954 14.272 104.734 14.272C105.341 14.272 105.8 14.5753 106.112 15.182C106.441 15.7713 106.511 16.6033 106.32 17.678L106.034 17.834C106.155 16.9153 106.095 16.1787 105.852 15.624C105.609 15.052 105.211 14.766 104.656 14.766C104.205 14.766 103.729 14.9913 103.226 15.442C102.741 15.8753 102.264 16.4733 101.796 17.236C101.345 17.9813 100.929 18.822 100.548 19.758C100.184 20.694 99.8894 21.6647 99.6641 22.67C99.4561 23.658 99.3521 24.6113 99.3521 25.53C99.3521 26.2753 99.4301 26.7953 99.5861 27.09C99.7594 27.3847 99.9847 27.532 100.262 27.532ZM106.814 14.636C107.23 14.6187 107.646 14.584 108.062 14.532C108.478 14.48 108.859 14.3933 109.206 14.272L105.956 25.764C105.921 25.92 105.869 26.128 105.8 26.388C105.748 26.6307 105.748 26.856 105.8 27.064C105.869 27.272 106.051 27.376 106.346 27.376C106.693 27.376 107.031 27.1853 107.36 26.804C107.689 26.4227 108.019 25.7293 108.348 24.724L108.66 23.762H109.154L108.504 25.66C108.261 26.3533 107.967 26.8993 107.62 27.298C107.291 27.6793 106.944 27.948 106.58 28.104C106.216 28.2773 105.861 28.364 105.514 28.364C104.838 28.364 104.361 28.1387 104.084 27.688C103.859 27.2893 103.798 26.83 103.902 26.31C104.006 25.7727 104.127 25.2353 104.266 24.698L106.814 14.636Z" fill="#4F4F4F"/>
<path d="M12.487 20.6698C12.123 20.3553 11.7203 20.1534 11.2728 20.0158C10.8284 19.8858 10.3453 19.8506 9.88995 19.9423C9.43555 20.0318 9.01155 20.2204 8.66056 20.4842C8.30494 20.7428 8.00658 21.0562 7.7614 21.3989C8.0807 21.1183 8.4215 20.8655 8.7888 20.6735C9.15628 20.4839 9.54785 20.3489 9.94757 20.3207C10.3454 20.2866 10.7428 20.3445 11.1158 20.473C11.3033 20.5345 11.4844 20.6167 11.6569 20.7126C11.692 20.7309 11.727 20.7509 11.7618 20.7712C11.5205 20.8685 11.2904 20.9887 11.078 21.1279C10.7287 21.3588 10.4179 21.6285 10.1301 21.9121C9.56101 22.4858 9.07733 23.1105 8.6209 23.737C8.16539 24.3627 7.72545 24.991 7.2629 25.5633C7.03052 25.846 6.78757 26.1152 6.53294 26.3238C6.2798 26.5344 6.01424 26.6674 5.81484 26.6728C5.78927 26.6728 5.76425 26.6754 5.73905 26.6724L5.70403 26.6701C5.70736 26.6688 5.71163 26.6696 5.71163 26.6696C5.71682 26.6706 5.68976 26.6598 5.65269 26.6319C5.57597 26.5772 5.47145 26.4664 5.37731 26.3419C5.18496 26.0875 5.01057 25.7734 4.85176 25.452C4.53728 24.8024 4.26356 24.1092 4.01524 23.407C3.76655 22.704 3.54417 21.9877 3.33142 21.2678C3.11627 20.5485 2.91595 19.8233 2.7273 19.0951C2.35352 17.6378 2.01494 16.1692 1.71269 14.6988C1.56611 13.9635 1.42415 13.2265 1.31167 12.4962C1.25774 12.1331 1.20956 11.7641 1.19362 11.4265C1.18992 11.3438 1.18899 11.2622 1.19214 11.1967C1.19418 11.1625 1.19566 11.1431 1.19918 11.1213L1.22253 11.0058C1.25718 10.854 1.30518 10.7091 1.36745 10.575C1.49309 10.3073 1.67044 10.0782 1.91469 9.90223C2.15671 9.72484 2.46192 9.60054 2.79549 9.52347C3.46708 9.36916 4.22798 9.39455 4.97536 9.49399C5.78408 9.61741 6.63932 9.60018 7.4447 9.45067C8.24897 9.29263 9.03527 9.01189 9.67813 8.54079C8.90907 8.75565 8.13685 8.84834 7.37576 8.87409C6.9942 8.87232 6.61634 8.87853 6.24144 8.83183C6.0539 8.82082 5.8684 8.78566 5.68253 8.76524L5.12306 8.66527C4.31712 8.5154 3.47171 8.42484 2.58849 8.57222C2.15003 8.64822 1.69842 8.7933 1.29258 9.05344C0.886923 9.31038 0.544831 9.68506 0.333386 10.102C0.225532 10.3096 0.144919 10.5251 0.0858037 10.7409L0.0455881 10.9028C0.029651 10.9739 0.0198311 11.0486 0.013901 11.1088C0.00241137 11.2322 0.000185316 11.3404 0 11.4467C0.00240911 11.8665 0.0385448 12.2518 0.0789437 12.6402C0.160853 13.4132 0.278903 14.171 0.415666 14.9257C0.685857 16.4347 1.02498 17.9267 1.41618 19.4085C1.80535 20.8909 2.2401 22.364 2.78623 23.8172C3.06105 24.5439 3.35311 25.2682 3.73393 25.9795C3.92684 26.3355 4.1331 26.6894 4.41645 27.0407C4.56267 27.2156 4.72166 27.3933 4.96721 27.5595C5.091 27.6407 5.24092 27.722 5.43939 27.7659C5.4872 27.7776 5.54076 27.7842 5.59284 27.7895L5.70588 27.7941C5.77927 27.797 5.85321 27.7909 5.92603 27.7851C6.21939 27.7556 6.48458 27.6542 6.70585 27.5313C6.92915 27.4079 7.11317 27.2619 7.27995 27.1124C7.61074 26.8109 7.86815 26.4884 8.10906 26.1658C8.58699 25.52 8.97504 24.8557 9.38644 24.2153C9.79655 23.5764 10.2022 22.9429 10.6829 22.3821C11.1571 21.8231 11.7085 21.3169 12.385 21.0802L12.8209 20.9578L12.487 20.6698Z" fill="#40505F"/>
<path d="M7.42603 10.5158C7.8037 10.4968 8.17674 10.4506 8.54274 10.3801C8.90911 10.3132 9.26881 10.223 9.61553 10.1056C9.96115 9.98592 10.2981 9.85185 10.6122 9.68316C10.9098 9.51624 11.2456 9.29836 11.5864 9.1247C12.2707 8.77364 12.9905 8.48704 13.7481 8.27289C14.5055 8.063 15.3134 7.93923 16.17 8.03033C16.596 8.07667 17.0382 8.19973 17.4448 8.42453C17.8547 8.64508 18.1957 8.99471 18.4329 9.37543C18.4911 9.46102 18.5587 9.59029 18.6009 9.69648C18.6478 9.80675 18.6797 9.90921 18.7116 10.0124C18.7713 10.2157 18.8091 10.4108 18.843 10.6048C18.9062 10.9903 18.9408 11.366 18.9651 11.7398C19.0502 13.2316 18.9682 14.6916 18.8411 16.1487C18.704 17.6039 18.5029 19.0506 18.229 20.4877C18.0895 21.2058 17.9388 21.9226 17.7557 22.6345C17.5784 23.3474 17.3699 24.0558 17.121 24.7574C16.9959 25.1082 16.861 25.4577 16.7068 25.8045C16.5521 26.1509 16.3812 26.4968 16.1509 26.8314C16.0332 26.9987 15.9081 27.1652 15.738 27.3236C15.6941 27.363 15.6463 27.4016 15.5999 27.4396C15.5494 27.477 15.4921 27.5125 15.4378 27.547C15.3142 27.6111 15.1745 27.6715 15.0067 27.6832C14.6843 27.7018 14.453 27.5972 14.254 27.4895C14.0579 27.3767 13.8919 27.2485 13.7473 27.1098C13.4545 26.834 13.2194 26.5347 12.9959 26.2314C12.7755 25.9263 12.5724 25.6152 12.3877 25.2949C12.0154 24.6567 11.6846 24.0018 11.4037 23.3277C11.6105 23.6314 11.8182 23.9329 12.0361 24.2271C12.2505 24.5233 12.4692 24.8156 12.6983 25.0986C13.1543 25.6599 13.6315 26.2246 14.1817 26.6352C14.3174 26.7373 14.4569 26.825 14.5915 26.8845C14.7212 26.9454 14.8618 26.9667 14.9169 26.95C14.9582 26.9429 15.0523 26.8825 15.1424 26.7767C15.2334 26.6739 15.3184 26.538 15.3968 26.3979C15.7074 25.821 15.9309 25.1421 16.119 24.4667C16.4826 23.1019 16.7517 21.6967 16.9739 20.2866C17.0847 19.5812 17.187 18.8739 17.273 18.1647C17.363 17.456 17.442 16.7459 17.5052 16.0354C17.5741 15.3255 17.626 14.6147 17.661 13.9058C17.7001 13.1975 17.7144 12.4891 17.697 11.7934C17.6873 11.4463 17.6675 11.1012 17.6258 10.7718C17.5793 10.4448 17.525 10.1258 17.4086 9.93531C17.1468 9.44575 16.6553 9.13446 16.0121 9.01833C15.3731 8.89936 14.6565 8.96186 13.954 9.0883C13.2481 9.21739 12.5448 9.42746 11.8671 9.69239C11.5222 9.81918 11.2113 9.97438 10.8355 10.1305C10.4693 10.273 10.0927 10.3785 9.71171 10.448C8.95062 10.5881 8.17693 10.6161 7.42603 10.5158Z" fill="#4F4F4F"/>
</svg>
