<svg width="60" height="41" viewBox="0 0 60 41" fill="none" xmlns="http://www.w3.org/2000/svg">
<path d="M27.9743 7.79111C29.5951 5.40719 32.1489 3.12886 34.7338 1.82653C36.7304 0.841303 38.8963 0.245199 41.1158 0.0700041C42.5124 -0.0483846 43.9178 -0.0165387 45.3076 0.164985C46.5211 0.326147 47.7401 0.63936 48.958 0.811655C50.0007 0.944194 51.1289 1.00759 52.1804 0.934379C53.4964 0.842738 54.8906 0.733578 56.1905 0.52059C57.0724 0.376098 57.7831 -0.198238 58.7238 0.157895C59.4243 0.423178 59.6783 0.784819 60 1.42935V3.52252C59.828 4.00581 59.8535 4.74836 59.7583 5.2714C59.6019 6.13065 59.465 6.99801 59.2497 7.84548C58.7449 9.90693 57.9079 11.8725 56.7721 13.6652C54.9 16.652 52.5735 18.7719 49.4133 20.3408C48.8487 20.6212 47.7205 21.0943 47.1226 21.2294C47.6751 21.4139 48.1925 21.5877 48.7538 21.745C49.7174 22.0148 50.8904 21.931 51.3949 22.9661C51.593 23.3683 51.6226 23.8324 51.4778 24.2566C51.155 25.1786 47.5066 27.3501 46.5146 27.8013C45.4711 28.2759 45.3732 28.0087 44.4205 29.0326C42.7972 30.7778 40.858 32.3092 38.8081 33.5326C37.9664 34.0239 37.0931 34.459 36.1939 34.8351C31.6137 36.796 27.0876 37.0919 22.184 36.5007C20.3773 36.2809 18.5871 35.9426 16.825 35.4873C15.4164 35.1193 14.0213 34.7013 12.6423 34.2343C12.1644 34.069 11.6878 33.9003 11.2124 33.728C10.9334 33.6284 10.5831 33.4922 10.2979 33.4339C9.90703 33.7327 9.51539 34.0526 9.13937 34.3705C7.82221 35.4844 6.47408 36.5686 5.16475 37.691C4.67156 38.1176 4.17601 38.5412 3.67811 38.9619C3.40058 39.1989 2.91984 39.6293 2.61295 39.8068C2.27758 39.9984 1.88922 40.0766 1.50587 40.0292C0.880008 39.9536 0.44729 39.5555 0.169861 39.0234C0.112941 38.9141 0.0595427 38.7644 0 38.6675V38.0004C0.13758 37.7763 0.192893 37.4256 0.395262 37.1938C0.77521 36.7585 1.28432 36.4459 1.7192 36.0671C3.18999 34.8003 4.67777 33.5534 6.18208 32.3265C6.5543 32.0156 6.92842 31.7071 7.30436 31.4007C7.57002 31.1859 7.88933 30.9507 8.12288 30.7081C8.19688 30.2698 8.23374 29.7252 8.28589 29.272C8.37381 28.5334 8.48177 27.7977 8.60971 27.065C9.77221 20.6748 11.9992 15.4512 16.86 10.9744C19.0893 8.92246 21.7184 7.35329 24.5826 6.36523C25.5379 6.03277 26.7858 5.52813 27.5964 6.44969C27.9575 6.86032 28.0124 7.27141 27.9743 7.79111ZM24.9398 10.0029C20.3933 11.5692 16.407 15.7206 14.3433 19.9928C13.0183 22.7355 12.5504 24.6636 11.9723 27.5886C12.6203 27.0108 13.4982 26.3522 14.1927 25.8217L16.0997 24.3425C20.6329 20.8514 25.4742 17.7797 30.5637 15.1653C31.7062 14.6024 32.862 14.0669 34.0301 13.5591C36.1544 12.6252 38.4117 11.6966 40.6421 11.0678C41.5553 10.8103 43.9547 10.0681 44.7776 10.1301C45.2183 10.1603 45.627 10.3703 45.9082 10.7106C46.4924 11.4054 46.4244 12.5236 45.6759 13.0768C45.1298 13.4804 44.3912 13.5495 43.7388 13.7148C43.3395 13.8199 42.9425 13.9335 42.5479 14.0556C40.2331 14.7574 37.9644 15.6034 35.7554 16.5886C35.0613 16.8958 34.3688 17.2374 33.6812 17.5611C31.7408 18.4535 29.8418 19.4323 27.9891 20.4949C25.6233 21.8683 23.1318 23.545 20.9049 25.1256C19.1037 26.412 17.3329 27.7406 15.5937 29.1099C14.9483 29.6177 14.058 30.2792 13.4645 30.8232C14.9748 31.3063 16.532 31.7938 18.0712 32.1688C24.0722 33.631 30.4506 33.9513 36.0964 31.0573C36.9621 30.6179 37.7974 30.1207 38.5966 29.5696C38.9353 29.339 39.7518 28.7405 40.0696 28.5615C38.9868 28.5272 37.7769 28.5621 36.6829 28.5612L29.1732 28.563L26.6609 28.5551C26.2845 28.5539 25.772 28.5946 25.405 28.5287C24.0212 28.2803 23.5918 26.5626 24.5705 25.6113C25.1082 25.0887 25.9584 25.1997 26.6612 25.2L28.8145 25.1932L39.4122 25.1971L41.9997 25.1973C42.368 25.1976 43.219 25.2152 43.5387 25.1601C44.1442 25.0556 45.0064 24.6492 45.5613 24.3803C45.0858 24.0431 44.6203 23.6921 44.1656 23.327C43.8343 23.0622 43.0723 22.2984 42.7641 22.1806C42.4503 22.0605 42.0182 22.1124 41.683 22.115C40.8416 22.1221 37.996 22.2331 37.398 22.0257C36.8657 21.8408 36.4248 21.394 36.3299 20.8268C36.2443 20.3168 36.3132 19.7818 36.6182 19.3538C36.8657 19.007 37.2108 18.776 37.6354 18.7096C38.1835 18.6237 38.7612 18.6623 39.3152 18.6657C40.3523 18.6719 41.3959 18.7019 42.4321 18.6459C43.4095 18.593 44.3991 18.3952 45.3401 18.1304C48.5528 17.2488 51.375 15.3103 53.3508 12.6279C54.6935 10.8059 55.6286 8.31678 56.1311 6.12757C56.2793 5.48143 56.3739 4.76465 56.4867 4.10708C54.2692 4.50391 50.8066 4.65707 48.6029 4.31541C46.3652 3.96851 44.6651 3.45681 42.3135 3.49241C37.0421 3.56418 32.7782 6.67958 29.9367 10.9537C29.7158 11.2815 29.5025 11.6142 29.2968 11.9517C29.0442 12.3734 28.797 12.8908 28.4462 13.237C27.8049 13.8697 26.6543 13.8411 26.0163 13.2158C25.542 12.751 25.4644 12.2143 25.3155 11.5942L24.9398 10.0029Z" fill="#40505F"/>
</svg>
