<?xml version="1.0" standalone="no"?>
<!DOCTYPE svg PUBLIC "-//W3C//DTD SVG 20010904//EN"
 "http://www.w3.org/TR/2001/REC-SVG-20010904/DTD/svg10.dtd">
<svg version="1.0" xmlns="http://www.w3.org/2000/svg"
 width="288.000000pt" height="288.000000pt" viewBox="0 0 288.000000 288.000000"
 preserveAspectRatio="xMidYMid meet">
<metadata>
Created by potrace 1.10, written by Peter Selinger 2001-2011
</metadata>
<g transform="translate(0.000000,288.000000) scale(0.100000,-0.100000)"
fill="#000000" stroke="none">
<path d="M624 2437 c-2 -7 -3 -60 -2 -118 l3 -104 685 -2 c377 -2 692 -5 700
-8 9 -4 -257 -277 -808 -828 -452 -452 -822 -825 -822 -829 0 -4 37 -44 82
-88 l82 -81 821 821 c451 451 823 820 828 820 4 0 7 -304 7 -676 0 -446 4
-682 10 -695 10 -17 22 -19 120 -19 105 0 110 1 115 22 3 13 4 421 3 908 l-3
885 -908 3 c-745 2 -908 0 -913 -11z"/>
</g>
</svg>
